<?xml version="1.0" encoding="UTF-8"?><svg id="Layer_1" xmlns="http://www.w3.org/2000/svg" viewBox="0 0 766.72 692.71"><defs><style>.cls-1,.cls-2{fill:#fff;}.cls-2{fill-rule:evenodd;}.cls-3,.cls-4,.cls-5{fill:none;stroke:#fff;stroke-miterlimit:10;}.cls-6{fill:#bae5f2;}.cls-4{stroke-width:.5px;}.cls-7{fill:#0672ac;}.cls-8{fill:#00a14b;}.cls-9{fill:#7c4fa0;}.cls-5{stroke-width:4px;}.cls-10{fill:#562c82;}</style></defs><path class="cls-7" d="m342.79,22.88c0,2.76-2.08,4.51-5.18,4.51h-2.69v4.42h-3.25v-13.45h5.94c3.07,0,5.18,1.91,5.18,4.53Zm-5.4-1.73h-2.47v3.47h2.49c1.14,0,2.02-.6,2.02-1.75s-.85-1.73-2.04-1.73Z"/><path class="cls-7" d="m355.75,22.88c0,1.86-.96,3.27-2.51,3.99v.25l3.03,4.46v.22h-3.7l-2.8-4.42h-1.88v4.42h-3.25v-13.45h5.94c3.07,0,5.18,1.91,5.18,4.53Zm-5.4-1.73h-2.47v3.47h2.49c1.14,0,2.02-.6,2.02-1.75s-.85-1.73-2.04-1.73Z"/><path class="cls-7" d="m357.2,25.08c0-3.86,2.82-7.02,6.88-7.02s6.93,3.16,6.93,7.02-2.82,7.04-6.93,7.04-6.88-3.18-6.88-7.04Zm10.45,0c0-2.33-1.57-3.88-3.56-3.88s-3.52,1.55-3.52,3.88,1.57,3.88,3.52,3.88,3.56-1.55,3.56-3.88Z"/><path class="cls-7" d="m378.2,31.8h-5.18v-13.45h5.18c4.33,0,7.06,2.87,7.06,6.72s-2.73,6.72-7.06,6.72Zm-1.93-2.8h1.68c2.17,0,3.94-1.46,3.94-3.92,0-2.6-1.77-3.92-3.94-3.92h-1.68v7.85Z"/><path class="cls-7" d="m387.13,26v-7.64h3.25v7.64c0,1.68.9,2.96,2.71,2.96s2.71-1.28,2.71-2.96v-7.64h3.25v7.64c0,3.47-2.24,6.12-5.96,6.12s-5.96-2.65-5.96-6.12Z"/><path class="cls-7" d="m407.84,32.12c-4.35,0-6.93-3.18-6.93-7.04s2.58-7.02,6.93-7.02c3.16,0,4.6,1.64,4.6,1.64l-1.86,2.49s-.9-1.01-2.69-1.01c-2.11,0-3.61,1.57-3.61,3.9s1.5,3.9,3.61,3.9c1.79,0,2.69-1.01,2.69-1.01l1.86,2.49s-1.43,1.66-4.6,1.66Z"/><path class="cls-7" d="m423.98,18.35v2.8h-3.79v10.65h-3.25v-10.65h-3.79v-2.8h10.83Z"/><path class="cls-7" d="m430.54,29.11c1.01,0,1.48-.45,1.48-1.12s-.43-1.05-2.31-1.61c-2.82-.83-4.44-1.93-4.44-4.15,0-2.44,1.66-4.17,5.2-4.17s5.07,1.43,5.07,1.43l-1.75,2.65s-1.41-1.12-3.32-1.12c-1.1,0-1.46.43-1.46.99,0,.67.58.94,2.13,1.39,2.98.83,4.68,2,4.68,4.24,0,2.44-1.64,4.46-5.18,4.46-3.72,0-5.63-1.79-5.63-1.79l1.77-2.49s1.93,1.3,3.74,1.3Z"/><path class="cls-9" d="m343.04,350.12c1.01,0,1.48-.45,1.48-1.12s-.43-1.05-2.31-1.61c-2.82-.83-4.44-1.93-4.44-4.15,0-2.44,1.66-4.17,5.2-4.17s5.07,1.43,5.07,1.43l-1.75,2.64s-1.41-1.12-3.32-1.12c-1.1,0-1.46.43-1.46.99,0,.67.58.94,2.13,1.39,2.98.83,4.69,2,4.69,4.24,0,2.44-1.64,4.46-5.18,4.46-3.72,0-5.63-1.79-5.63-1.79l1.77-2.49s1.93,1.3,3.74,1.3Z"/><path class="cls-9" d="m353.57,347.27v2.73h6.52v2.8h-9.77v-13.45h9.77v2.8h-6.52v2.55h5.47v2.56h-5.47Z"/><path class="cls-9" d="m373.39,343.89c0,1.86-.96,3.27-2.51,3.99v.25l3.03,4.46v.22h-3.7l-2.8-4.42h-1.88v4.42h-3.25v-13.45h5.94c3.07,0,5.18,1.91,5.18,4.53Zm-5.4-1.73h-2.47v3.47h2.49c1.14,0,2.02-.6,2.02-1.75s-.85-1.73-2.04-1.73Z"/><path class="cls-9" d="m377.33,339.36l3.41,9.98,3.41-9.98h3.5l-5.13,13.45h-3.54l-5.13-13.45h3.5Z"/><path class="cls-9" d="m388.83,352.81v-13.45h3.25v13.45h-3.25Z"/><path class="cls-9" d="m401.05,353.12c-4.35,0-6.93-3.18-6.93-7.04s2.58-7.02,6.93-7.02c3.16,0,4.59,1.64,4.59,1.64l-1.86,2.49s-.9-1.01-2.69-1.01c-2.11,0-3.61,1.57-3.61,3.9s1.5,3.9,3.61,3.9c1.79,0,2.69-1.01,2.69-1.01l1.86,2.49s-1.43,1.66-4.59,1.66Z"/><path class="cls-9" d="m410.48,347.27v2.73h6.52v2.8h-9.77v-13.45h9.77v2.8h-6.52v2.55h5.47v2.56h-5.47Z"/><path class="cls-9" d="m423.84,350.12c1.01,0,1.48-.45,1.48-1.12s-.43-1.05-2.31-1.61c-2.82-.83-4.44-1.93-4.44-4.15,0-2.44,1.66-4.17,5.2-4.17s5.07,1.43,5.07,1.43l-1.75,2.64s-1.41-1.12-3.32-1.12c-1.1,0-1.46.43-1.46.99,0,.67.58.94,2.13,1.39,2.98.83,4.68,2,4.68,4.24,0,2.44-1.64,4.46-5.18,4.46-3.72,0-5.63-1.79-5.63-1.79l1.77-2.49s1.93,1.3,3.74,1.3Z"/><path class="cls-8" d="m277.45,521.23v-5.47h-5.51v5.47h-3.25v-13.47h3.25v5.45h5.51v-5.45h3.25v13.47h-3.25Z"/><path class="cls-8" d="m292.2,521.21l-.83-2.42h-5.16l-.83,2.42h-3.5l5.13-13.45h3.54l5.13,13.45h-3.5Zm-1.7-4.98l-1.7-4.98-1.7,4.98h3.41Z"/><path class="cls-8" d="m308,512.29c0,1.86-.96,3.27-2.51,3.99v.25l3.03,4.46v.22h-3.7l-2.8-4.42h-1.88v4.42h-3.25v-13.45h5.94c3.07,0,5.18,1.91,5.18,4.53Zm-5.4-1.73h-2.47v3.47h2.49c1.14,0,2.02-.61,2.02-1.75s-.85-1.73-2.04-1.73Z"/><path class="cls-8" d="m315.51,521.21h-5.18v-13.45h5.18c4.33,0,7.06,2.87,7.06,6.72s-2.73,6.72-7.06,6.72Zm-1.93-2.8h1.68c2.17,0,3.94-1.46,3.94-3.92,0-2.6-1.77-3.92-3.94-3.92h-1.68v7.85Z"/><path class="cls-8" d="m329.52,521.21h-2.51l-3.92-13.45h3.56l1.7,7.13,2.2-7.13h2.42l2.24,7.17,1.75-7.17h3.59l-3.92,13.45h-2.51l-2.35-7.55-2.24,7.55Z"/><path class="cls-8" d="m349.94,521.21l-.83-2.42h-5.16l-.83,2.42h-3.5l5.13-13.45h3.54l5.13,13.45h-3.5Zm-1.7-4.98l-1.7-4.98-1.7,4.98h3.41Z"/><path class="cls-8" d="m365.74,512.29c0,1.86-.96,3.27-2.51,3.99v.25l3.03,4.46v.22h-3.7l-2.8-4.42h-1.88v4.42h-3.25v-13.45h5.94c3.07,0,5.18,1.91,5.18,4.53Zm-5.4-1.73h-2.47v3.47h2.49c1.14,0,2.02-.61,2.02-1.75s-.85-1.73-2.04-1.73Z"/><path class="cls-8" d="m371.32,515.68v2.74h6.52v2.8h-9.77v-13.45h9.77v2.8h-6.52v2.56h5.47v2.55h-5.47Z"/><path class="cls-8" d="m395.58,512.29c0,1.86-.96,3.27-2.51,3.99v.25l3.03,4.46v.22h-3.7l-2.8-4.42h-1.88v4.42h-3.25v-13.45h5.94c3.07,0,5.18,1.91,5.18,4.53Zm-5.4-1.73h-2.47v3.47h2.49c1.14,0,2.02-.61,2.02-1.75s-.85-1.73-2.04-1.73Z"/><path class="cls-8" d="m401.16,515.68v2.74h6.52v2.8h-9.77v-13.45h9.77v2.8h-6.52v2.56h5.47v2.55h-5.47Z"/><path class="cls-8" d="m414.52,518.52c1.01,0,1.48-.45,1.48-1.12s-.43-1.05-2.31-1.61c-2.82-.83-4.44-1.93-4.44-4.15,0-2.44,1.66-4.17,5.2-4.17s5.07,1.43,5.07,1.43l-1.75,2.65s-1.41-1.12-3.32-1.12c-1.1,0-1.46.43-1.46.99,0,.67.58.94,2.13,1.39,2.98.83,4.68,2,4.68,4.24,0,2.44-1.64,4.46-5.18,4.46-3.72,0-5.63-1.79-5.63-1.79l1.77-2.49s1.93,1.3,3.74,1.3Z"/><path class="cls-8" d="m421.04,514.49c0-3.86,2.82-7.02,6.88-7.02s6.93,3.16,6.93,7.02-2.82,7.04-6.93,7.04-6.88-3.18-6.88-7.04Zm10.45,0c0-2.33-1.57-3.88-3.56-3.88s-3.52,1.55-3.52,3.88,1.57,3.88,3.52,3.88,3.56-1.55,3.56-3.88Z"/><path class="cls-8" d="m436.69,515.41v-7.64h3.25v7.64c0,1.68.9,2.96,2.71,2.96s2.71-1.28,2.71-2.96v-7.64h3.25v7.64c0,3.47-2.24,6.12-5.96,6.12s-5.96-2.64-5.96-6.12Z"/><path class="cls-8" d="m462.33,512.29c0,1.86-.96,3.27-2.51,3.99v.25l3.03,4.46v.22h-3.7l-2.8-4.42h-1.88v4.42h-3.25v-13.45h5.94c3.07,0,5.18,1.91,5.18,4.53Zm-5.4-1.73h-2.47v3.47h2.49c1.14,0,2.02-.61,2.02-1.75s-.85-1.73-2.04-1.73Z"/><path class="cls-8" d="m470.74,521.53c-4.35,0-6.93-3.18-6.93-7.04s2.58-7.02,6.93-7.02c3.16,0,4.6,1.64,4.6,1.64l-1.86,2.49s-.9-1.01-2.69-1.01c-2.11,0-3.61,1.57-3.61,3.9s1.5,3.9,3.61,3.9c1.79,0,2.69-1.01,2.69-1.01l1.86,2.49s-1.43,1.66-4.6,1.66Z"/><path class="cls-8" d="m480.17,515.68v2.74h6.52v2.8h-9.77v-13.45h9.77v2.8h-6.52v2.56h5.47v2.55h-5.47Z"/><path class="cls-8" d="m493.53,518.52c1.01,0,1.48-.45,1.48-1.12s-.43-1.05-2.31-1.61c-2.82-.83-4.44-1.93-4.44-4.15,0-2.44,1.66-4.17,5.2-4.17s5.07,1.43,5.07,1.43l-1.75,2.65s-1.41-1.12-3.32-1.12c-1.1,0-1.46.43-1.46.99,0,.67.58.94,2.13,1.39,2.98.83,4.68,2,4.68,4.24,0,2.44-1.64,4.46-5.18,4.46-3.72,0-5.63-1.79-5.63-1.79l1.77-2.49s1.93,1.3,3.74,1.3Z"/><rect class="cls-6" x="26.86" y="49.44" width="713.01" height="276.13" rx="19.54" ry="19.54"/><rect class="cls-7" x="89.12" y="62.6" width="130.08" height="113.8" rx="14.16" ry="14.16"/><rect class="cls-7" x="242.72" y="62.6" width="130.08" height="113.8" rx="14.16" ry="14.16"/><rect class="cls-7" x="397.66" y="62.6" width="130.08" height="113.8" rx="14.16" ry="14.16"/><rect class="cls-7" x="551.55" y="63.06" width="130.08" height="113.8" rx="14.16" ry="14.16"/><path class="cls-1" d="m446.78,96.97c-2.58,0-4.25-1.96-4.25-4.38s1.67-4.4,4.25-4.4c1.93,0,2.83,1.05,2.83,1.05l-.8,1.08s-.73-.81-2-.81c-1.67,0-2.83,1.34-2.83,3.08s1.16,3.05,2.83,3.05c1.28,0,2-.8,2-.8l.8,1.06s-.9,1.06-2.83,1.06Z"/><path class="cls-1" d="m456.73,96.78l-.69-1.72h-4.01l-.67,1.72h-1.47l3.45-8.4h1.4l3.45,8.4h-1.46Zm-1.15-2.9l-1.54-3.89-1.54,3.89h3.08Z"/><path class="cls-1" d="m462.73,96.97c-2.58,0-4.25-1.96-4.25-4.38s1.67-4.4,4.25-4.4c1.93,0,2.83,1.05,2.83,1.05l-.8,1.08s-.73-.81-2-.81c-1.67,0-2.83,1.34-2.83,3.08s1.16,3.05,2.83,3.05c1.28,0,2-.8,2-.8l.8,1.06s-.9,1.06-2.83,1.06Z"/><path class="cls-1" d="m472.68,96.78l-.69-1.72h-4.01l-.67,1.72h-1.47l3.45-8.4h1.4l3.45,8.4h-1.46Zm-1.15-2.9l-1.54-3.89-1.54,3.89h3.08Z"/><path class="cls-1" d="m474.44,92.59c0-2.45,1.67-4.4,4.2-4.4s4.22,1.95,4.22,4.4-1.67,4.38-4.22,4.38-4.2-1.96-4.2-4.38Zm7,0c0-1.74-1.13-3.07-2.8-3.07s-2.77,1.33-2.77,3.07,1.12,3.04,2.77,3.04,2.8-1.32,2.8-3.04Z"/><path class="cls-1" d="m154.4,121.34c4.15,0,8.29.01,12.44.01,2.35,0,4.7.09,7.05.09.09,0,.18,0,.27,0,.02,0,.03,0,.05,0,3.93,0,7.36,1.35,10.34,3.83,3.95,3.3,5.98,7.59,6.11,12.72.21,8.34-5.93,15.76-14.18,16.99-1.01.15-2,.23-2.95.23-5.26,0-9.69-2.28-13.25-6.63-.69-.84-1.15-1.84-1.84-2.69-.59-.73-1.22-1.41-2-1.93-.76-.51-1.51-.77-2.26-.77-.75,0-1.49.25-2.25.76-1.32.88-2.23,2.12-3.05,3.44-2.02,3.25-4.88,5.48-8.45,6.79-1.91.71-3.88,1.05-5.82,1.05-6.45,0-12.57-3.73-15.4-9.92-1.02-2.23-1.52-4.57-1.52-7.02,0-8.27,5.94-15.33,14-16.65.24-.04.49-.06.73-.07,7.33-.19,14.66-.22,21.99-.22m0-1.7c-6.56,0-14.32.03-22.04.22-.32,0-.65.04-.96.09-8.93,1.47-15.41,9.17-15.42,18.33,0,2.69.56,5.3,1.67,7.73,3.03,6.63,9.68,10.91,16.95,10.91,2.19,0,4.34-.39,6.41-1.15,4-1.48,7.13-4,9.3-7.49.67-1.08,1.45-2.19,2.55-2.92.48-.32.91-.47,1.31-.47.41,0,.84.16,1.32.48.64.43,1.18,1.05,1.62,1.59.27.34.53.74.79,1.17.31.5.64,1.02,1.05,1.53,3.94,4.81,8.84,7.25,14.57,7.25,1.04,0,2.12-.08,3.2-.25,9.14-1.37,15.86-9.41,15.63-18.71-.14-5.67-2.4-10.38-6.71-13.98-3.36-2.81-7.2-4.23-11.42-4.23h-.32c-1.17,0-2.35-.02-3.52-.04-1.18-.02-2.35-.04-3.53-.04h-5.56c-2.29-.01-4.59-.01-6.88-.01h0Z"/><path class="cls-1" d="m188.07,138.16c0,6.71-4.54,12.31-11.13,13.6-5.81,1.13-11.76-1.8-14.51-7.4-3.18-6.47-.96-14.39,5.06-18.06,7.05-4.3,16.12-1.41,19.42,6.19.79,1.81,1.18,3.69,1.16,5.67Zm-17.18,11.31c-.16-.38-.03-.58.12-.8,1.21-1.76,2.4-3.53,3.62-5.28.25-.36.28-.58-.07-.9-1.41-1.32-2.79-2.66-4.18-4.01-1.94-1.88-3.88-3.76-5.82-5.64-.68-.65-.56-.49-.83.19-.63,1.57-.95,3.21-1.12,4.89-.42,4.36,2.07,8.81,6.04,10.66.68.32,1.39.56,2.23.89Zm13.52-17.39c-4,5.91-7.97,11.79-11.95,17.67l.12.15c4.71.22,8.96-.72,11.72-5.04,2.68-4.19,3-8.46.11-12.78Zm-14.93,3.02c.32-.52.85-1.02.88-1.56.03-.47-.68-.82-1.05-1.24-.01-.01-.02-.03-.04-.04-.43-.46-.45-.88-.06-1.28.32-.33.76-.3,1.21.08.37.31.69.96,1.07.88.36-.08.6-.72.89-1.11.37-.49.94-.59,1.43-.26.4.27.41.66.02,1.24-.73,1.09-1.47,2.18-2.21,3.26-.84,1.23-.84,1.22.25,2.29.21.21.3.2.46-.05.64-1.04,1.3-2.07,1.96-3.11.7-1.11,1.4-2.22,2.11-3.33.32-.5.83-.63,1.31-.34.43.26.51.7.21,1.24-.09.17-.2.33-.3.49-1.3,2.05-2.6,4.11-3.92,6.15-.2.31-.2.5.09.74.68.58,1.34,1.19,1.99,1.8.24.23.36.26.57-.06,1.41-2.19,2.84-4.37,4.28-6.55.19-.28.15-.45-.08-.67-.42-.39-.83-.81-1.23-1.23-.41-.42-.43-.9-.07-1.3.32-.36.82-.37,1.27,0,.3.25.56.53.84.79q.62.59,1.07-.1c.95-1.44.97-1.47-.45-2.5-3.53-2.56-7.37-3.23-11.55-1.87-2.17.7-3.91,1.99-5.26,3.66,1.58,1.18,2.79,2.72,4.31,3.97Z"/><path class="cls-1" d="m133.48,151.99c-5.28-.42-9.23-2.93-11.59-7.69-3.6-7.25-.34-15.97,7.13-19.04,7.81-3.2,16.53,1.57,18.23,10.01,1.41,6.99-2.35,13.62-8.86,15.96-1.48.53-3.6.85-4.92.75Zm3.58-22.99c1.67,3.18,1.73,6.27-.63,9.21,1.3.27,2.45.71,3.52,1.31,1.82,1.03,3.42,2.27,3.9,4.46.06-.02.1-.03.12-.05.09-.13.17-.27.24-.41.71-1.41,1.1-2.91,1.17-4.49.17-3.79-1.24-6.97-4.08-9.4-3.36-2.87-7.21-3.71-11.41-1.99-2.09.85-3.87,2.2-5.24,4.02-1.84,2.46-2.32,5.23-1.82,8.22.63,3.81,2.49,6.77,5.95,8.62,1.21.65,2.5,1.09,3.94,1.32-.5-.64-.86-1.26-1.03-1.96-.77-3.14-.07-6,1.69-8.64.22-.34.18-.41-.16-.55-1.07-.45-2.09-1-2.98-1.76-2.04-1.75-2.89-3.95-2.52-6.61.26.89.51,1.78.8,2.65.58,1.72,1.68,2.92,3.36,3.6.84.34,1.68.69,2.51,1.06.25.11.42.1.66-.08,1.8-1.39,2.4-3.28,2.38-5.46,0-1.04-.31-2.04-.37-3.07h0Zm5.11,17.41c.36-2.25-.54-4.16-2.41-5.22-1.32-.75-2.73-1.26-4.18-1.67-.26-.07-.38,0-.55.22-1.19,1.44-1.72,3.09-1.8,4.94-.08,1.85.45,3.45,1.8,4.75.36.34.71.48,1.23.36.65-.15,1.29-.32,1.9-.58,1.01-.44,1.97-.99,2.97-1.69-.24.02-.37.02-.49.03-.33.02-.65-.02-.76-.4-.1-.35.12-.56.38-.73.61-.4,1.22-.77,1.91.01Z"/><path class="cls-1" d="m130.26,131.83c-.4-.02-.64-.2-.73-.53-.08-.32.11-.53.39-.66.52-.24,1.04-.49,1.57-.69.38-.14.79-.18.97.3.17.46-.1.69-.51.86-.57.24-1.1.6-1.69.71Z"/><path class="cls-1" d="m134.32,130.2c-.37-.02-.63-.18-.71-.53-.08-.35.1-.56.43-.67.56-.19,1.12-.38,1.68-.57.41-.14.76-.04.9.37.14.4-.1.67-.48.8-.61.21-1.19.5-1.81.6Z"/><path class="cls-1" d="m131.86,135.83c-.39,0-.65-.17-.75-.51-.11-.35.11-.55.4-.69.33-.16.68-.26,1.05-.32.31-.05.54.1.66.4.11.29,0,.54-.23.68-.35.22-.75.36-1.13.44Z"/><path class="cls-1" d="m135.99,133.2c.36.01.58.13.66.42.08.26.02.52-.21.65-.37.22-.77.42-1.22.43-.34.01-.58-.17-.66-.48-.09-.34.08-.57.4-.7.35-.15.72-.27,1.03-.33Z"/><path class="cls-1" d="m137.07,128.99s-.05-.06-.08-.09c.02-.01.03-.03.05-.04,0,.04.02.09.03.13,0,0,0,0,0,0Z"/><path class="cls-1" d="m137.31,149.15c-.36-.04-.6-.18-.71-.47-.1-.27.04-.49.24-.64.28-.21.57-.4.88-.56.33-.17.62-.07.81.24.18.3.1.58-.17.79-.34.26-.66.57-1.06.64Z"/><path class="cls-1" d="m135.13,145.76c-.4,0-.63-.17-.75-.44-.13-.29.03-.51.25-.67.25-.19.51-.36.79-.52.33-.19.66-.14.87.19.2.31.11.6-.18.82-.33.25-.62.56-.98.61Z"/><path class="cls-1" d="m138.11,143.83c-.31.02-.51-.15-.62-.4-.12-.27-.02-.52.22-.69.27-.19.55-.38.84-.53.32-.16.63-.1.83.21.2.32.11.6-.19.82-.33.24-.61.58-1.07.59Z"/><path class="cls-1" d="m124.42,88.38h-2.97v-8.4h2.97c2.62,0,4.33,1.69,4.33,4.2s-1.71,4.2-4.33,4.2Zm-1.58-1.23h1.5c1.68,0,3-1.11,3-2.97s-1.32-2.97-3-2.97h-1.5v5.94Z"/><path class="cls-1" d="m130.32,88.38v-8.4h1.39v8.4h-1.39Z"/><path class="cls-1" d="m136.38,87.28c1.13,0,1.62-.48,1.62-1.16,0-.64-.39-.97-1.91-1.43-1.88-.56-2.79-1.19-2.79-2.51,0-1.44,1.09-2.4,3.08-2.4,2.09,0,2.93.85,2.93.85l-.76,1.13s-.8-.7-2.17-.7c-.95,0-1.56.38-1.56,1.05,0,.57.45.85,1.86,1.27,2.03.57,2.84,1.32,2.84,2.62,0,1.43-1.02,2.55-3.12,2.55s-3.18-1.05-3.18-1.05l.76-1.05s.98.81,2.38.81Z"/><path class="cls-1" d="m144.75,88.57c-2.58,0-4.24-1.96-4.24-4.38s1.67-4.4,4.24-4.4c1.93,0,2.83,1.05,2.83,1.05l-.8,1.08s-.73-.81-2-.81c-1.67,0-2.83,1.34-2.83,3.08s1.16,3.05,2.83,3.05c1.27,0,2-.8,2-.8l.8,1.06s-.9,1.06-2.83,1.06Z"/><path class="cls-1" d="m148.18,84.19c0-2.45,1.67-4.4,4.2-4.4s4.22,1.95,4.22,4.4-1.67,4.38-4.22,4.38-4.2-1.96-4.2-4.38Zm7,0c0-1.74-1.13-3.07-2.8-3.07s-2.77,1.33-2.77,3.07,1.12,3.04,2.77,3.04,2.8-1.32,2.8-3.04Z"/><path class="cls-1" d="m158.37,79.97l2.68,6.81,2.69-6.81h1.46l-3.45,8.4h-1.4l-3.45-8.4h1.47Z"/><path class="cls-1" d="m167.64,84.71v2.44h4.59v1.23h-5.98v-8.4h5.98v1.23h-4.59v2.33h3.91v1.18h-3.91Z"/><path class="cls-1" d="m180.5,82.79c0,1.3-.7,2.19-1.78,2.59v.07l2.02,2.73v.2h-1.53l-2-2.77h-2v2.77h-1.39v-8.4h3.46c1.98,0,3.22,1.06,3.22,2.82Zm-3.29-1.58h-2v3.17h2.09c1.02,0,1.77-.5,1.77-1.57s-.73-1.6-1.85-1.6Z"/><path class="cls-1" d="m188.34,79.97l-3.04,5.18v3.22h-1.39v-3.22l-3.04-5.18h1.56l1.88,3.29.31.69.31-.69,1.88-3.29h1.54Z"/><path class="cls-1" d="m111.65,101.51v2.44h4.59v1.23h-5.98v-8.4h5.98v1.23h-4.59v2.33h3.91v1.18h-3.91Z"/><path class="cls-1" d="m124.04,105.18l-4.83-5.97v5.97h-1.39v-8.4h1.05l4.82,5.94v-5.94h1.39v8.4h-1.04Z"/><path class="cls-1" d="m127.61,96.77l2.68,6.81,2.69-6.81h1.46l-3.45,8.4h-1.4l-3.45-8.4h1.47Z"/><path class="cls-1" d="m135.49,105.18v-8.4h1.39v8.4h-1.39Z"/><path class="cls-1" d="m145.64,99.59c0,1.3-.7,2.19-1.78,2.59v.07l2.02,2.73v.2h-1.53l-2-2.77h-2v2.77h-1.39v-8.4h3.46c1.98,0,3.22,1.06,3.22,2.82Zm-3.29-1.58h-2v3.17h2.09c1.02,0,1.77-.5,1.77-1.57s-.73-1.6-1.85-1.6Z"/><path class="cls-1" d="m146.8,100.99c0-2.45,1.67-4.4,4.2-4.4s4.22,1.95,4.22,4.4-1.67,4.38-4.22,4.38-4.2-1.96-4.2-4.38Zm7,0c0-1.74-1.13-3.07-2.8-3.07s-2.77,1.33-2.77,3.07,1.12,3.04,2.77,3.04,2.8-1.32,2.8-3.04Z"/><path class="cls-1" d="m162.99,105.18l-4.83-5.97v5.97h-1.39v-8.4h1.05l4.82,5.94v-5.94h1.39v8.4h-1.04Z"/><path class="cls-1" d="m170.39,102.49h-.5l-2.41-3.12v5.81h-1.39v-8.4h1.06l2.98,3.92,3-3.92h1.04v8.4s-1.36,0-1.36,0v-5.85l-2.42,3.17Z"/><path class="cls-1" d="m177.64,101.51v2.44h4.59v1.23h-5.98v-8.4h5.98v1.23h-4.59v2.33h3.91v1.18h-3.91Z"/><path class="cls-1" d="m190.04,105.18l-4.83-5.97v5.97h-1.39v-8.4h1.05l4.82,5.94v-5.94h1.39v8.4h-1.04Z"/><path class="cls-1" d="m199.09,96.77v1.23h-2.63v7.17h-1.39v-7.17h-2.63v-1.23h6.65Z"/><path class="cls-1" d="m275.21,96.78h-2.97v-8.4h2.97c2.62,0,4.33,1.69,4.33,4.2s-1.71,4.2-4.33,4.2Zm-1.58-1.23h1.5c1.68,0,3-1.11,3-2.97s-1.32-2.97-3-2.97h-1.5v5.94Z"/><path class="cls-1" d="m286.68,96.78l-.69-1.72h-4.01l-.67,1.72h-1.47l3.45-8.4h1.4l3.45,8.4h-1.46Zm-1.15-2.9l-1.54-3.89-1.54,3.89h3.08Z"/><path class="cls-1" d="m294.27,88.37v1.23h-2.63v7.17h-1.39v-7.17h-2.63v-1.23h6.65Z"/><path class="cls-1" d="m300.58,96.78l-.69-1.72h-4.01l-.67,1.72h-1.47l3.45-8.4h1.4l3.45,8.4h-1.46Zm-1.15-2.9l-1.54-3.89-1.54,3.89h3.08Z"/><path class="cls-1" d="m308.31,95.68c1.13,0,1.62-.48,1.62-1.16,0-.64-.39-.97-1.91-1.43-1.88-.56-2.79-1.19-2.79-2.51,0-1.44,1.09-2.4,3.08-2.4,2.09,0,2.93.85,2.93.85l-.76,1.13s-.8-.7-2.17-.7c-.95,0-1.56.38-1.56,1.05,0,.57.45.85,1.86,1.27,2.03.57,2.84,1.32,2.84,2.62,0,1.43-1.02,2.55-3.12,2.55s-3.18-1.05-3.18-1.05l.76-1.05s.98.81,2.38.81Z"/><path class="cls-1" d="m318.92,88.37v1.23h-2.63v7.17h-1.39v-7.17h-2.63v-1.23h6.65Z"/><path class="cls-1" d="m319.45,92.59c0-2.45,1.67-4.4,4.2-4.4s4.22,1.95,4.22,4.4-1.67,4.38-4.22,4.38-4.2-1.96-4.2-4.38Zm7,0c0-1.74-1.13-3.07-2.8-3.07s-2.77,1.33-2.77,3.07,1.12,3.04,2.77,3.04,2.8-1.32,2.8-3.04Z"/><path class="cls-1" d="m336.1,91.19c0,1.3-.7,2.19-1.78,2.59v.07l2.02,2.73v.2h-1.53l-2-2.77h-2v2.77h-1.39v-8.4h3.46c1.98,0,3.22,1.06,3.22,2.82Zm-3.29-1.58h-2v3.17h2.09c1.02,0,1.77-.5,1.77-1.57s-.73-1.6-1.85-1.6Z"/><path class="cls-1" d="m339.19,93.11v2.44h4.59v1.23h-5.98v-8.4h5.98v1.23h-4.59v2.33h3.91v1.18h-3.91Z"/><path class="cls-1" d="m598.92,88.38h-3.81v-8.4h3.68c1.86,0,2.9.81,2.9,2.28,0,.84-.46,1.48-1.18,1.79v.06c.85.24,1.43.91,1.43,1.88,0,1.58-1.18,2.4-3.03,2.4Zm-.14-7.17h-2.28v2.35h2.26c.91,0,1.48-.48,1.48-1.16,0-.8-.56-1.19-1.46-1.19Zm-2.28,5.94h2.45c.87,0,1.54-.45,1.54-1.23,0-.71-.63-1.16-1.43-1.2h-2.56v2.44Z"/><path class="cls-1" d="m603.53,88.38v-8.4h1.39v8.4h-1.39Z"/><path class="cls-1" d="m609.6,87.28c1.13,0,1.62-.48,1.62-1.16,0-.64-.39-.97-1.91-1.43-1.88-.56-2.79-1.19-2.79-2.51,0-1.44,1.09-2.4,3.08-2.4,2.09,0,2.93.85,2.93.85l-.76,1.13s-.8-.7-2.17-.7c-.95,0-1.55.38-1.55,1.05,0,.57.45.85,1.86,1.27,2.03.57,2.84,1.32,2.84,2.62,0,1.43-1.02,2.55-3.12,2.55s-3.18-1.05-3.18-1.05l.76-1.05s.98.81,2.38.81Z"/><path class="cls-1" d="m613.74,84.19c0-2.45,1.67-4.4,4.2-4.4s4.22,1.95,4.22,4.4c0,1.7-.81,3.17-2.17,3.89l1.09,1.88h-1.54l-.81-1.46c-.25.04-.52.07-.78.07-2.54,0-4.2-1.96-4.2-4.38Zm7,0c0-1.74-1.13-3.07-2.8-3.07s-2.77,1.33-2.77,3.07,1.12,3.04,2.77,3.04,2.8-1.32,2.8-3.04Z"/><path class="cls-1" d="m623.6,84.82v-4.85h1.39v4.85c0,1.39.71,2.42,2.13,2.42s2.13-1.04,2.13-2.42v-4.85h1.39v4.85c0,2.19-1.29,3.75-3.52,3.75s-3.52-1.57-3.52-3.75Z"/><path class="cls-1" d="m633.97,84.71v2.44h4.59v1.23h-5.98v-8.4h5.98v1.23h-4.59v2.33h3.91v1.18h-3.91Z"/><path class="cls-1" d="m568.72,105.18v-8.4h1.39v8.4h-1.39Z"/><path class="cls-1" d="m576.5,102.49h-.5l-2.41-3.12v5.81h-1.39v-8.4h1.07l2.98,3.92,3-3.92h1.04v8.4s-1.36,0-1.36,0v-5.85l-2.42,3.17Z"/><path class="cls-1" d="m588.19,105.18l-.69-1.72h-4.01l-.67,1.72h-1.47l3.45-8.4h1.4l3.45,8.4h-1.46Zm-1.15-2.9l-1.54-3.89-1.54,3.89h3.08Z"/><path class="cls-1" d="m593.95,101.61v-1.18h4.03v.83c0,2.49-1.44,4.12-3.85,4.12-2.61,0-4.19-1.96-4.19-4.38s1.64-4.4,4.23-4.4c2.09,0,3,1.08,3,1.08l-.81,1.06s-.78-.83-2.18-.83c-1.7,0-2.8,1.34-2.8,3.08s1.08,3.05,2.76,3.05c1.47,0,2.38-.98,2.38-2.4v-.04h-2.56Z"/><path class="cls-1" d="m600.8,101.51v2.44h4.59v1.23h-5.98v-8.4h5.98v1.23h-4.59v2.33h3.91v1.18h-3.91Z"/><path class="cls-1" d="m615.42,105.18l-.69-1.72h-4.01l-.67,1.72h-1.47l3.45-8.4h1.4l3.45,8.4h-1.46Zm-1.15-2.9l-1.54-3.89-1.54,3.89h3.08Z"/><path class="cls-1" d="m624.15,105.18l-4.83-5.97v5.97h-1.39v-8.4h1.05l4.82,5.94v-5.94h1.39v8.4h-1.04Z"/><path class="cls-1" d="m633.08,105.18l-.69-1.72h-4.01l-.67,1.72h-1.47l3.45-8.4h1.4l3.45,8.4h-1.46Zm-1.15-2.9l-1.54-3.89-1.54,3.89h3.08Z"/><path class="cls-1" d="m635.6,96.77h1.39v7.17h4.13v1.23h-5.52v-8.4Z"/><path class="cls-1" d="m647.71,96.77l-3.04,5.18v3.22h-1.39v-3.22l-3.04-5.18h1.55l1.88,3.29.31.69.31-.69,1.88-3.29h1.54Z"/><path class="cls-1" d="m651.14,104.08c1.13,0,1.62-.48,1.62-1.16,0-.64-.39-.97-1.91-1.43-1.88-.56-2.79-1.19-2.79-2.51,0-1.44,1.09-2.4,3.08-2.4,2.09,0,2.93.85,2.93.85l-.76,1.13s-.8-.7-2.17-.7c-.95,0-1.55.38-1.55,1.05,0,.57.45.85,1.86,1.27,2.03.57,2.84,1.32,2.84,2.62,0,1.43-1.02,2.55-3.12,2.55s-3.18-1.05-3.18-1.05l.76-1.05s.98.81,2.38.81Z"/><path class="cls-1" d="m655.8,105.18v-8.4h1.39v8.4h-1.39Z"/><path class="cls-1" d="m661.87,104.08c1.13,0,1.62-.48,1.62-1.16,0-.64-.39-.97-1.91-1.43-1.88-.56-2.79-1.19-2.79-2.51,0-1.44,1.09-2.4,3.08-2.4,2.09,0,2.93.85,2.93.85l-.76,1.13s-.8-.7-2.17-.7c-.95,0-1.55.38-1.55,1.05,0,.57.45.85,1.86,1.27,2.03.57,2.84,1.32,2.84,2.62,0,1.43-1.02,2.55-3.12,2.55s-3.18-1.05-3.18-1.05l.76-1.05s.98.81,2.38.81Z"/><polygon class="cls-1" points="612.3 133.44 615.39 122.06 622.48 124.16 621.3 117.07 595.23 123.26 601.92 146.22 605.41 145.52 603.61 134.94 612.3 133.44"/><polygon class="cls-1" points="613.69 133.04 630.36 130.25 632.76 146.31 637.95 130.05 616.19 123.76 613.69 133.04"/><polygon class="cls-1" points="613.39 140.43 617.59 151.41 618.78 143.32 621.98 147.01 624.67 143.42 628.4 147.21 629.26 141.62 630.96 141.13 629.56 131.94 605.01 135.94 607.52 150.82 612.6 151.01 613.39 140.43"/><polygon class="cls-1" points="629.76 142.22 628.8 148.85 624.77 144.72 622.08 148.31 619.2 144.97 617.89 153.7 613.79 143.12 613.1 151.9 607.71 151.6 608.9 159.49 633.16 156 630.96 141.92 629.76 142.22"/><rect class="cls-7" x="89.12" y="196.25" width="130.08" height="113.8" rx="14.16" ry="14.16"/><rect class="cls-7" x="242.72" y="196.25" width="130.08" height="113.8" rx="14.16" ry="14.16"/><rect class="cls-7" x="397.66" y="196.25" width="130.08" height="113.8" rx="14.16" ry="14.16"/><rect class="cls-7" x="551.55" y="196.71" width="130.08" height="113.8" rx="14.16" ry="14.16"/><path class="cls-1" d="m594.11,219.36c-2.58,0-4.25-1.96-4.25-4.38s1.67-4.4,4.25-4.4c1.93,0,2.83,1.05,2.83,1.05l-.8,1.08s-.73-.81-2-.81c-1.67,0-2.83,1.34-2.83,3.08s1.16,3.05,2.83,3.05c1.28,0,2-.8,2-.8l.8,1.06s-.9,1.06-2.83,1.06Z"/><path class="cls-1" d="m604.69,210.76l-3.04,5.18v3.22h-1.39v-3.22l-3.04-5.18h1.55l1.88,3.29.31.69.31-.69,1.88-3.29h1.54Z"/><path class="cls-1" d="m606.22,210.76l2.67,6.81,2.69-6.81h1.46l-3.45,8.4h-1.4l-3.45-8.4h1.47Z"/><path class="cls-1" d="m615.48,215.49v2.44h4.59v1.23h-5.98v-8.4h5.98v1.23h-4.59v2.33h3.91v1.18h-3.91Z"/><path class="cls-1" d="m628.34,213.57c0,1.3-.7,2.19-1.78,2.59v.07l2.02,2.73v.2h-1.53l-2-2.77h-2v2.77h-1.39v-8.4h3.46c1.98,0,3.22,1.06,3.22,2.82Zm-3.29-1.58h-2v3.17h2.09c1.02,0,1.76-.5,1.76-1.57s-.73-1.6-1.85-1.6Z"/><path class="cls-1" d="m632.63,218.07c1.13,0,1.62-.48,1.62-1.16,0-.64-.39-.97-1.91-1.43-1.88-.56-2.79-1.19-2.79-2.51,0-1.44,1.09-2.4,3.08-2.4,2.09,0,2.93.85,2.93.85l-.76,1.13s-.8-.7-2.17-.7c-.95,0-1.55.38-1.55,1.05,0,.57.45.85,1.86,1.27,2.03.57,2.84,1.32,2.84,2.62,0,1.43-1.02,2.55-3.12,2.55s-3.18-1.05-3.18-1.05l.76-1.05s.98.81,2.38.81Z"/><path class="cls-1" d="m638.68,215.49v2.44h4.59v1.23h-5.98v-8.4h5.98v1.23h-4.59v2.33h3.91v1.18h-3.91Z"/><path class="cls-1" d="m586.49,227.56h1.39v7.17h4.13v1.23h-5.52v-8.4Z"/><path class="cls-1" d="m594.79,232.29v2.44h4.59v1.23h-5.98v-8.4h5.98v1.23h-4.59v2.33h3.91v1.18h-3.91Z"/><path class="cls-1" d="m606.79,235.96l-.69-1.72h-4.01l-.67,1.72h-1.47l3.45-8.4h1.4l3.45,8.4h-1.46Zm-1.15-2.9l-1.54-3.89-1.54,3.89h3.08Z"/><path class="cls-1" d="m615.99,230.37c0,1.3-.7,2.19-1.78,2.59v.07l2.02,2.73v.2h-1.53l-2-2.77h-2v2.77h-1.39v-8.4h3.46c1.98,0,3.22,1.06,3.22,2.82Zm-3.29-1.58h-2v3.17h2.09c1.02,0,1.76-.5,1.76-1.57s-.73-1.6-1.85-1.6Z"/><path class="cls-1" d="m623.91,235.96l-4.83-5.97v5.97h-1.39v-8.4h1.05l4.82,5.94v-5.94h1.39v8.4h-1.04Z"/><path class="cls-1" d="m627.02,235.96v-8.4h1.39v8.4h-1.39Z"/><path class="cls-1" d="m636.71,235.96l-4.83-5.97v5.97h-1.39v-8.4h1.05l4.82,5.94v-5.94h1.39v8.4h-1.04Z"/><path class="cls-1" d="m643.3,232.39v-1.18h4.03v.83c0,2.49-1.44,4.12-3.85,4.12-2.61,0-4.19-1.96-4.19-4.38s1.64-4.4,4.23-4.4c2.09,0,3,1.08,3,1.08l-.81,1.06s-.78-.83-2.18-.83c-1.7,0-2.8,1.34-2.8,3.08s1.08,3.05,2.76,3.05c1.47,0,2.38-.98,2.38-2.4v-.04h-2.56Z"/><path class="cls-1" d="m427.38,210.76c1.98,0,3.22,1.06,3.22,2.82s-1.29,2.87-3.25,2.87h-2.05v2.72h-1.39v-8.4h3.46Zm-.07,1.23h-2v3.24h2.02c1.11,0,1.85-.5,1.85-1.64s-.74-1.6-1.86-1.6Z"/><path class="cls-1" d="m431.48,214.97c0-2.45,1.67-4.4,4.2-4.4s4.22,1.95,4.22,4.4-1.67,4.38-4.22,4.38-4.2-1.96-4.2-4.38Zm7,0c0-1.74-1.13-3.07-2.8-3.07s-2.77,1.33-2.77,3.07,1.12,3.04,2.77,3.04,2.8-1.32,2.8-3.04Z"/><path class="cls-1" d="m444.18,219.16h-1.08l-2.66-8.4h1.47l1.71,5.95,1.65-5.95h1.16l1.67,5.97,1.71-5.97h1.5l-2.68,8.4h-1.08l-1.69-6.05-1.68,6.05Z"/><path class="cls-1" d="m453.91,215.49v2.44h4.59v1.23h-5.98v-8.4h5.98v1.23h-4.59v2.33h3.91v1.18h-3.91Z"/><path class="cls-1" d="m466.77,213.57c0,1.3-.7,2.19-1.78,2.59v.07l2.02,2.73v.2h-1.53l-2-2.77h-2v2.77h-1.39v-8.4h3.46c1.98,0,3.22,1.06,3.22,2.82Zm-3.29-1.58h-2v3.17h2.09c1.02,0,1.76-.5,1.76-1.57s-.73-1.6-1.85-1.6Z"/><path class="cls-1" d="m469.86,215.49v2.44h4.59v1.23h-5.98v-8.4h5.98v1.23h-4.59v2.33h3.91v1.18h-3.91Z"/><path class="cls-1" d="m479,219.16h-2.97v-8.4h2.97c2.62,0,4.33,1.69,4.33,4.2s-1.71,4.2-4.33,4.2Zm-1.58-1.23h1.5c1.68,0,3-1.11,3-2.97s-1.32-2.97-3-2.97h-1.5v5.94Z"/><path class="cls-1" d="m491.7,219.16h-3.81v-8.4h3.68c1.86,0,2.9.81,2.9,2.28,0,.84-.46,1.48-1.18,1.79v.06c.85.24,1.43.91,1.43,1.88,0,1.58-1.18,2.4-3.03,2.4Zm-.14-7.17h-2.28v2.35h2.26c.91,0,1.48-.48,1.48-1.16,0-.8-.56-1.19-1.46-1.19Zm-2.28,5.94h2.45c.87,0,1.54-.45,1.54-1.23,0-.71-.63-1.16-1.43-1.2h-2.56v2.44Z"/><path class="cls-1" d="m502.52,210.76l-3.04,5.18v3.22h-1.39v-3.22l-3.04-5.18h1.55l1.88,3.29.31.69.31-.69,1.88-3.29h1.54Z"/><path class="cls-1" d="m440.01,236.16c-2.58,0-4.25-1.96-4.25-4.38s1.67-4.4,4.25-4.4c1.93,0,2.83,1.05,2.83,1.05l-.8,1.08s-.73-.81-2-.81c-1.67,0-2.83,1.34-2.83,3.08s1.16,3.05,2.83,3.05c1.27,0,2-.8,2-.8l.8,1.06s-.9,1.06-2.83,1.06Z"/><path class="cls-1" d="m450.6,227.56l-3.04,5.18v3.22h-1.39v-3.22l-3.04-5.18h1.55l1.88,3.29.31.69.31-.69,1.88-3.29h1.54Z"/><path class="cls-1" d="m452.12,227.56l2.67,6.81,2.69-6.81h1.46l-3.45,8.4h-1.4l-3.45-8.4h1.47Z"/><path class="cls-1" d="m461.39,232.29v2.44h4.59v1.23h-5.98v-8.4h5.98v1.23h-4.59v2.33h3.91v1.18h-3.91Z"/><path class="cls-1" d="m474.24,230.37c0,1.3-.7,2.19-1.78,2.59v.07l2.02,2.73v.2h-1.53l-2-2.77h-2v2.77h-1.39v-8.4h3.46c1.98,0,3.22,1.06,3.22,2.82Zm-3.29-1.58h-2v3.17h2.09c1.02,0,1.76-.5,1.76-1.57s-.73-1.6-1.85-1.6Z"/><path class="cls-1" d="m478.54,234.87c1.13,0,1.62-.48,1.62-1.16,0-.64-.39-.97-1.91-1.43-1.88-.56-2.79-1.19-2.79-2.51,0-1.44,1.09-2.4,3.08-2.4,2.09,0,2.93.85,2.93.85l-.76,1.13s-.8-.7-2.17-.7c-.95,0-1.55.38-1.55,1.05,0,.57.45.85,1.86,1.27,2.03.57,2.84,1.32,2.84,2.62,0,1.43-1.02,2.55-3.12,2.55s-3.18-1.05-3.18-1.05l.76-1.05s.98.81,2.38.81Z"/><path class="cls-1" d="m484.58,232.29v2.44h4.59v1.23h-5.98v-8.4h5.98v1.23h-4.59v2.33h3.91v1.18h-3.91Z"/><path class="cls-2" d="m471.09,256.35c-9.04-1.82-21.14-.75-28.31,6.61-3.04,3.13-5.37,6.51-6.01,11.29-.22,1.66-1.37-.18-1.37-3.29,0-1.25,1.05-4.22,1.72-5.79,2.58-6.05,12.71-13.93,33.97-8.83h0Z"/><path class="cls-2" d="m469.93,292.64c2.41-.42,2.88-2.56,1.82-3.22-.51-.32-1.06-.23-1.54-.18-19.71,2.03-30.64-5.75-33.11-13.28-.27-.82-1.24-3.99-1.64-5.66-.49,14.16,14.91,25.75,34.48,22.33h0Z"/><path class="cls-2" d="m466.77,251.83c-6.57-1.37-28.08,1.71-30.38,12.48-.32,1.08-.5,2.18-.53,3.27.05-.78.09-1.38.13-1.9.11-1.02.26-2.16.44-3.17.05-.25.1-.51.16-.81h0s.25-1.02.25-1.02v-.02s0,0,0,0c.03-.12.06-.24.1-.35.4-1.35,1.11-2.63,1.9-3.96,1.14-1.9,9.42-8.5,27.91-4.52h0Z"/><path class="cls-2" d="m436.58,261.43c-.23,1.26-.37,2.06-.47,2.77-.05.38-.09.76-.13,1.13-.05.55-.19,1.18-.12,2.03,1.43,18.07,31.03,21.94,48.05,15.1,2.58-1.04,2.2-4.41.71-4.67-.43-.08-.82.11-1.15.23-22.51,8.32-47.83,1.64-47.03-13.88.06-1.25.08-2.5.39-3.74l-.24,1.03h0Z"/><path class="cls-2" d="m439.24,254.47c.58-.9,1.41-2.05,2.03-2.91.44-.55.82-1,1.25-1.45,4.99-5.21,13.53-2.92,17.56-1.62-5.09-.65-14.49-2.3-20.85,5.98h0Z"/><path class="cls-2" d="m440.91,252.03c-.54.76-1.23,1.76-1.77,2.6-.22.36-.44.74-.65,1.12-3.17,6.2-.86,13.23,6.9,18.03,10.91,6.74,28.46,6.5,39.2-.53,2.06-1.35,3.72-2.86,4.98-4.45,1.23-2.03-.51-4.54-1.48-4.49-.25.01-.56.19-.74.36-1.15,1.46-2.66,2.83-4.55,4.06-9.79,6.42-25.8,6.64-35.76.49-8.21-5.08-9.74-12.9-4.53-19.09l-.05.06c-.56.62-1.13,1.28-1.57,1.85h0Z"/><path class="cls-1" d="m271.09,226.47c1.13,0,1.62-.48,1.62-1.16,0-.64-.39-.97-1.91-1.43-1.88-.56-2.79-1.19-2.79-2.51,0-1.44,1.09-2.4,3.08-2.4,2.09,0,2.93.85,2.93.85l-.76,1.13s-.8-.7-2.17-.7c-.95,0-1.56.38-1.56,1.05,0,.57.45.85,1.86,1.27,2.03.57,2.84,1.32,2.84,2.62,0,1.43-1.02,2.55-3.12,2.55s-3.18-1.05-3.18-1.05l.76-1.05s.98.81,2.38.81Z"/><path class="cls-1" d="m279.46,227.76c-2.58,0-4.24-1.96-4.24-4.38s1.67-4.4,4.24-4.4c1.93,0,2.83,1.05,2.83,1.05l-.8,1.08s-.73-.81-2-.81c-1.67,0-2.83,1.34-2.83,3.08s1.16,3.05,2.83,3.05c1.27,0,2-.8,2-.8l.8,1.06s-.9,1.06-2.83,1.06Z"/><path class="cls-1" d="m283.59,227.56v-8.4h1.39v8.4h-1.39Z"/><path class="cls-1" d="m288.45,223.89v2.44h4.59v1.23h-5.98v-8.4h5.98v1.23h-4.59v2.33h3.91v1.18h-3.91Z"/><path class="cls-1" d="m300.84,227.56l-4.83-5.97v5.97h-1.39v-8.4h1.05l4.82,5.94v-5.94h1.39v8.4h-1.04Z"/><path class="cls-1" d="m307.66,227.76c-2.58,0-4.24-1.96-4.24-4.38s1.67-4.4,4.24-4.4c1.93,0,2.83,1.05,2.83,1.05l-.8,1.08s-.73-.81-2-.81c-1.67,0-2.83,1.34-2.83,3.08s1.16,3.05,2.83,3.05c1.27,0,2-.8,2-.8l.8,1.06s-.9,1.06-2.83,1.06Z"/><path class="cls-1" d="m313.17,223.89v2.44h4.59v1.23h-5.98v-8.4h5.98v1.23h-4.59v2.33h3.91v1.18h-3.91Z"/><path class="cls-1" d="m327.79,227.56l-.69-1.72h-4.01l-.67,1.72h-1.47l3.45-8.4h1.4l3.45,8.4h-1.46Zm-1.15-2.9l-1.54-3.89-1.54,3.89h3.08Z"/><path class="cls-1" d="m333.77,219.16c1.98,0,3.22,1.06,3.22,2.82s-1.29,2.87-3.25,2.87h-2.04v2.72h-1.39v-8.4h3.46Zm-.07,1.23h-2v3.24h2.02c1.11,0,1.85-.5,1.85-1.64s-.74-1.6-1.86-1.6Z"/><path class="cls-1" d="m338.38,227.56v-8.4h1.39v8.4h-1.39Z"/><path class="cls-1" d="m344.45,226.47c1.13,0,1.62-.48,1.62-1.16,0-.64-.39-.97-1.91-1.43-1.88-.56-2.79-1.19-2.79-2.51,0-1.44,1.09-2.4,3.08-2.4,2.09,0,2.93.85,2.93.85l-.76,1.13s-.8-.7-2.17-.7c-.95,0-1.56.38-1.56,1.05,0,.57.45.85,1.86,1.27,2.03.57,2.84,1.32,2.84,2.62,0,1.43-1.02,2.55-3.12,2.55s-3.18-1.05-3.18-1.05l.76-1.05s.98.81,2.38.81Z"/><path class="cls-1" d="m329.85,278.86v-20.34c1.77-.58,3.04-2.24,3.04-4.2,0-2.44-1.98-4.42-4.42-4.42-1.54,0-2.89.79-3.68,1.98l-12.74-4.23c.01-.14.03-.27.03-.41,0-2.44-1.98-4.42-4.42-4.42s-4.42,1.98-4.42,4.42c0,.14,0,.28.02.42l-12.55,4.2c-.79-1.19-2.14-1.97-3.68-1.97-2.44,0-4.42,1.98-4.42,4.42,0,2.12,1.49,3.89,3.49,4.32v20.1c-1.99.43-3.49,2.2-3.49,4.32,0,2.44,1.98,4.42,4.42,4.42,1.84,0,3.42-1.13,4.08-2.72l12.71,5.91c-.37.64-.58,1.39-.58,2.18,0,2.44,1.98,4.42,4.42,4.42s4.42-1.98,4.42-4.42c0-.79-.22-1.53-.58-2.17l12.89-5.94c.66,1.61,2.24,2.74,4.09,2.74,2.44,0,4.42-1.98,4.42-4.42,0-1.96-1.28-3.62-3.04-4.2Zm-41.43,0v-20.34c.79-.26,1.47-.74,1.99-1.36l12.94,6.02c-.06.3-.1.61-.1.93,0,2.12,1.49,3.89,3.49,4.32v5.34l-17.09,5.72c-.37-.27-.78-.49-1.23-.63Zm2.72,2.56l15.6-5.22v12.33c-.4.09-.78.23-1.14.42l-14.2-6.61c-.05-.32-.15-.62-.27-.91Zm17.91,7.22v-12.3l15.33,5.09c-.11.28-.2.58-.25.89l-14.38,6.63c-.22-.12-.46-.22-.7-.3Zm0-14.73v-5.61c1.77-.58,3.04-2.24,3.04-4.2,0-.31-.03-.62-.1-.91l13.1-6.04c.62.74,1.48,1.28,2.46,1.49v20.1c-.62.13-1.19.4-1.68.76l-16.82-5.58Zm15.03-19.84c0,.08-.01.17-.01.25,0,.25.02.5.06.74l-13.19,6.08c-.51-.56-1.16-.99-1.89-1.23v-8.47c.9-.29,1.67-.87,2.21-1.63l12.82,4.25Zm-19.98-4.25c.63.87,1.56,1.5,2.65,1.74v8.23c-.91.2-1.72.68-2.33,1.34l-13.02-6.06c.04-.25.07-.5.07-.75,0-.09,0-.17-.01-.26l12.64-4.23Z"/><path class="cls-1" d="m109.7,227.56h-2.97v-8.4h2.97c2.62,0,4.33,1.69,4.33,4.2s-1.71,4.2-4.33,4.2Zm-1.58-1.23h1.5c1.68,0,3-1.11,3-2.97s-1.32-2.97-3-2.97h-1.5v5.94Z"/><path class="cls-1" d="m121.17,227.56l-.69-1.72h-4.01l-.67,1.72h-1.47l3.45-8.4h1.4l3.45,8.4h-1.46Zm-1.15-2.9l-1.54-3.89-1.54,3.89h3.08Z"/><path class="cls-1" d="m128.76,219.16v1.23h-2.63v7.17h-1.39v-7.17h-2.63v-1.23h6.65Z"/><path class="cls-1" d="m135.07,227.56l-.69-1.72h-4.01l-.67,1.72h-1.47l3.45-8.4h1.4l3.45,8.4h-1.46Zm-1.15-2.9l-1.54-3.89-1.54,3.89h3.08Z"/><path class="cls-1" d="m143.92,227.76c-2.58,0-4.24-1.96-4.24-4.38s1.67-4.4,4.24-4.4c1.93,0,2.83,1.05,2.83,1.05l-.8,1.08s-.73-.81-2-.81c-1.67,0-2.83,1.34-2.83,3.08s1.16,3.05,2.83,3.05c1.27,0,2-.8,2-.8l.8,1.06s-.9,1.06-2.83,1.06Z"/><path class="cls-1" d="m147.35,223.37c0-2.45,1.67-4.4,4.2-4.4s4.22,1.95,4.22,4.4-1.67,4.38-4.22,4.38-4.2-1.96-4.2-4.38Zm7,0c0-1.74-1.13-3.07-2.8-3.07s-2.77,1.33-2.77,3.07,1.12,3.04,2.77,3.04,2.8-1.32,2.8-3.04Z"/><path class="cls-1" d="m161.62,224.87h-.5l-2.41-3.12v5.81h-1.39v-8.4h1.06l2.98,3.92,3-3.92h1.04v8.4s-1.36,0-1.36,0v-5.85l-2.42,3.17Z"/><path class="cls-1" d="m171.78,224.87h-.5l-2.41-3.12v5.81h-1.39v-8.4h1.06l2.98,3.92,3-3.92h1.04v8.4s-1.36,0-1.36,0v-5.85l-2.42,3.17Z"/><path class="cls-1" d="m177.12,223.37c0-2.45,1.67-4.4,4.2-4.4s4.22,1.95,4.22,4.4-1.67,4.38-4.22,4.38-4.2-1.96-4.2-4.38Zm7,0c0-1.74-1.13-3.07-2.8-3.07s-2.77,1.33-2.77,3.07,1.12,3.04,2.77,3.04,2.8-1.32,2.8-3.04Z"/><path class="cls-1" d="m193.31,227.56l-4.83-5.97v5.97h-1.39v-8.4h1.05l4.82,5.94v-5.94h1.39v8.4h-1.04Z"/><path class="cls-1" d="m199.01,226.47c1.13,0,1.62-.48,1.62-1.16,0-.64-.39-.97-1.91-1.43-1.88-.56-2.79-1.19-2.79-2.51,0-1.44,1.09-2.4,3.08-2.4,2.09,0,2.93.85,2.93.85l-.76,1.13s-.8-.7-2.17-.7c-.95,0-1.56.38-1.56,1.05,0,.57.45.85,1.86,1.27,2.03.57,2.84,1.32,2.84,2.62,0,1.43-1.02,2.55-3.12,2.55s-3.18-1.05-3.18-1.05l.76-1.05s.98.81,2.38.81Z"/><path class="cls-1" d="m160.69,276.82c0,.44-.35.95-.86.95-.51,0-.87-.5-.86-.95,0-.54.37-.94.86-.94.49,0,.86.41.86.94Z"/><path class="cls-1" d="m160.69,282.52c0,.52-.39.95-.87.94-.48,0-.86-.43-.86-.95,0-.55.36-.94.87-.94.5,0,.86.4.86.94Z"/><path class="cls-1" d="m158.97,271.12c0-.53.4-.94.88-.93.48,0,.85.44.85.97,0,.53-.38.92-.87.92-.5,0-.86-.41-.86-.95Z"/><path class="cls-1" d="m176.86,286.62c-1.62-3.69-5.94-5.38-9.63-3.75-.12.05-.24.11-.36.17l-2.7-1.98c-.01-5.62,0-11.24,0-16.86,0-1.01-.27-1.91-.91-2.71-.39-.48-.84-.88-1.34-1.23-.87-.6-1.81-1.06-2.83-1.34-.89-.24-1.78-.49-2.69-.65-.22-.04-.43-.07-.65-.1v-1.18c.08-.04.16-.08.23-.13,3.48-2.03,4.66-6.52,2.63-10-1.05-1.79-2.81-3.06-4.85-3.48-1.77-.36-3.6-.06-5.15.85-1.69.98-2.89,2.57-3.38,4.46-.5,1.89-.23,3.86.76,5.54.55.94,1.31,1.75,2.21,2.36v1.54c-.06,0-.12.02-.18.03-.9.18-1.8.37-2.68.61-.59.16-1.19.38-1.73.66-.68.35-1.37.73-1.96,1.21-1.12.9-1.77,2.06-1.76,3.57.02,5.69.01,11.39,0,17.08l-2.4,1.76c-.12-.06-.24-.12-.36-.17-3.69-1.62-8.01.06-9.63,3.75-.83,1.9-.82,4.07.04,5.96.75,1.64,2.07,2.94,3.72,3.67,1.79.79,3.77.83,5.59.12,1.82-.71,3.25-2.08,4.04-3.87.46-1.04.66-2.18.61-3.3l2.92-2.14.02-.11c.08.03.15.06.23.09.75.25,1.51.44,2.28.63,2.57.63,5.17.61,7.78.41.64-.05,1.28-.13,1.9-.26.81-.17,1.61-.37,2.41-.6.3-.09.61-.19.9-.31l.04.17,2.92,2.14c-.06,1.13.15,2.27.61,3.3.79,1.79,2.22,3.16,4.04,3.87,1.82.71,3.81.67,5.59-.12,1.65-.73,2.97-2.03,3.72-3.67.86-1.89.87-4.06.04-5.96Zm-29.87-37.47c.37-1.41,1.27-2.6,2.53-3.33,1.16-.68,2.53-.91,3.85-.63,1.52.31,2.84,1.26,3.63,2.6,1.52,2.6.64,5.96-1.96,7.48-.34.2-.71.36-1.11.49l-.16.05.02,4.35v3.24c-1.23.33-2.46.37-3.67.06v-3.27l.02-.02-.02-4.6-.13-.06c-1.02-.47-1.86-1.23-2.43-2.2-.74-1.26-.94-2.73-.57-4.15Zm-5.19,14.03c.18-.32.41-.61.67-.87.7-.68,1.57-1.07,2.47-1.43.95-.37,1.93-.54,2.92-.77.1-.02.21-.04.31-.06v3.94h.04c2.49,1.5,4.98,1.4,7.46,0h.05v-3.97s.05,0,.08,0c.9.13,1.8.38,2.68.63.53.15,1.05.37,1.55.62.63.32,1.25.68,1.73,1.22.89,1,.92,2.05-.03,3.05-.66.69-1.49,1.11-2.35,1.48-.83.36-1.71.55-2.58.76-1.98.48-4,.55-6.02.44-1.06-.06-2.13-.17-3.17-.34-.81-.14-1.62-.36-2.39-.64-.83-.29-1.64-.64-2.34-1.19-.56-.43-1.06-.92-1.23-1.65-.1-.44-.05-.86.16-1.23Zm-.21,9.93v-.29c.59.57,1.2,1.04,1.91,1.35.41.18.82.36,1.23.54.67.28,1.37.45,2.07.59v-.95c-.06,0-.11-.02-.17-.03-.69-.12-1.37-.37-2.02-.65-.7-.29-1.39-.63-1.97-1.13-.64-.56-1.08-1.21-1.05-2.12.03-.98,0-1.97,0-3.01.38.26.69.52,1.04.7.64.32,1.31.58,1.96.88.8.37,1.66.5,2.51.69,2.76.62,5.53.58,8.32.28,1.25-.14,2.46-.45,3.66-.81.56-.17,1.12-.39,1.64-.66.58-.3,1.12-.67,1.69-1.02,0,.05.02.12.02.18,0,.99,0,1.97,0,2.96,0,.58-.22,1.07-.6,1.49-.52.59-1.17.98-1.87,1.33-.7.34-1.44.55-2.18.78-.22.07-.43.13-.65.18v.96c.47-.11.94-.22,1.41-.35.59-.17,1.18-.39,1.73-.66.69-.32,1.33-.75,1.9-1.25.08-.07.14-.15.25-.28,0,1.27,0,2.48,0,3.68,0,.42-.17.8-.43,1.11-.28.33-.59.64-.94.87-.49.32-1.02.6-1.56.83-.6.25-1.23.44-1.86.63-2.24.66-4.53.72-6.84.64-1.35-.05-2.69-.19-4-.5-.64-.16-1.29-.34-1.9-.58-.76-.3-1.52-.64-2.17-1.17-.7-.58-1.18-1.26-1.14-2.23.04-.98,0-1.97,0-2.96Zm-2.1,15.24l.03.14c.22,1.1.1,2.23-.35,3.26-.59,1.34-1.66,2.37-3.02,2.9-1.36.53-2.85.5-4.19-.09-1.24-.54-2.22-1.52-2.78-2.74-.64-1.41-.65-3.04-.03-4.46,1.21-2.76,4.44-4.02,7.21-2.81.36.16.71.36,1.04.61l.13.1,2.56-1.88c.21.6.56,1.14,1.05,1.63.43.43.89.8,1.41,1.09l-3.07,2.25Zm19.86-3.31c-.73.25-1.46.48-2.21.68-2.39.63-4.82.66-7.26.48-.79-.06-1.59-.14-2.36-.3-.83-.17-1.67-.39-2.47-.68-.77-.28-1.53-.62-2.19-1.13-.78-.61-1.34-1.33-1.29-2.41.05-1.04.01-2.08.01-3.11.45.34.87.7,1.33.99.73.45,1.53.75,2.34,1.03.96.33,1.95.47,2.94.66,2.22.42,4.46.41,6.69.15,1.16-.14,2.31-.39,3.44-.66.62-.14,1.21-.39,1.8-.65.7-.31,1.34-.73,1.93-1.21.12-.1.22-.23.36-.38,0,.13.02.2.02.28,0,1.05,0,2.1,0,3.15,0,.65-.26,1.19-.7,1.64-.67.69-1.48,1.17-2.38,1.48Zm15.79,6.78c-.56,1.23-1.54,2.2-2.78,2.74-1.34.59-2.82.62-4.19.09-1.36-.53-2.43-1.56-3.02-2.9-.45-1.03-.57-2.16-.35-3.26l.03-.14-3.22-2.36c.34-.22.67-.45.98-.71.69-.58,1.16-1.27,1.4-2.08l2.8,2.05.13-.1c.33-.25.69-.45,1.04-.61,2.76-1.21,5.99.05,7.21,2.81.62,1.42.61,3.05-.03,4.46Z"/><path class="cls-1" d="m157.14,275.34c-3.62.74-7.12.71-10.51,0v-1.01c3.5,1.04,7,1.04,10.51,0v1.01Z"/><rect class="cls-9" x="27.01" y="364.31" width="713.01" height="129" rx="20.54" ry="20.54"/><path class="cls-10" d="m26.7,428.87h713.01v43.9c0,11.37-9.23,20.6-20.6,20.6H45.92c-10.61,0-19.22-8.61-19.22-19.22v-45.28h0Z"/><path class="cls-1" d="m45.23,390.25v3.92h-1.48v-9h6.44v1.32h-4.95v2.5h4.19v1.26h-4.19Z"/><path class="cls-1" d="m53.22,390.24v2.61h4.92v1.32h-6.4v-9h6.4v1.32h-4.92v2.49h4.19v1.26h-4.19Z"/><path class="cls-1" d="m63.02,394.17h-3.18v-9h3.18c2.8,0,4.63,1.82,4.63,4.5s-1.83,4.5-4.63,4.5Zm-1.7-1.32h1.6c1.8,0,3.21-1.18,3.21-3.18s-1.41-3.18-3.21-3.18h-1.6v6.36Z"/><path class="cls-1" d="m70.82,390.24v2.61h4.92v1.32h-6.4v-9h6.4v1.32h-4.92v2.49h4.19v1.26h-4.19Z"/><path class="cls-1" d="m84.59,388.19c0,1.39-.75,2.34-1.9,2.77v.08l2.16,2.92v.21h-1.63l-2.15-2.97h-2.15v2.97h-1.48v-9h3.71c2.11,0,3.45,1.14,3.45,3.02Zm-3.52-1.7h-2.15v3.39h2.23c1.1,0,1.89-.54,1.89-1.68s-.78-1.71-1.98-1.71Z"/><path class="cls-1" d="m92.6,394.17l-.73-1.84h-4.29l-.72,1.84h-1.58l3.69-9h1.5l3.69,9h-1.56Zm-1.23-3.1l-1.65-4.17-1.65,4.17h3.3Z"/><path class="cls-1" d="m100.73,385.17v1.32h-2.82v7.68h-1.49v-7.68h-2.82v-1.32h7.12Z"/><path class="cls-1" d="m103.68,390.24v2.61h4.92v1.32h-6.4v-9h6.4v1.32h-4.92v2.49h4.19v1.26h-4.19Z"/><path class="cls-1" d="m113.48,394.17h-3.18v-9h3.18c2.8,0,4.63,1.82,4.63,4.5s-1.83,4.5-4.63,4.5Zm-1.7-1.32h1.6c1.8,0,3.21-1.18,3.21-3.18s-1.41-3.18-3.21-3.18h-1.6v6.36Z"/><path class="cls-1" d="m54.2,411c1.21,0,1.74-.51,1.74-1.25,0-.69-.42-1.04-2.04-1.53-2.01-.6-2.98-1.27-2.98-2.68,0-1.54,1.17-2.56,3.3-2.56,2.23,0,3.13.92,3.13.92l-.81,1.21s-.85-.75-2.32-.75c-1.02,0-1.67.4-1.67,1.12,0,.61.48.92,2,1.36,2.17.62,3.04,1.41,3.04,2.81,0,1.53-1.1,2.73-3.35,2.73s-3.4-1.12-3.4-1.12l.81-1.12s1.05.87,2.55.87Z"/><path class="cls-1" d="m65.57,403.17v1.32h-2.82v7.68h-1.49v-7.68h-2.82v-1.32h7.12Z"/><path class="cls-1" d="m66.14,407.69c0-2.62,1.78-4.71,4.5-4.71s4.52,2.08,4.52,4.71-1.79,4.69-4.52,4.69-4.5-2.1-4.5-4.69Zm7.5,0c0-1.86-1.21-3.29-3-3.29s-2.97,1.42-2.97,3.29,1.2,3.25,2.97,3.25,3-1.41,3-3.25Z"/><path class="cls-1" d="m83.97,406.19c0,1.39-.75,2.34-1.9,2.77v.08l2.16,2.92v.21h-1.63l-2.15-2.97h-2.15v2.97h-1.48v-9h3.71c2.11,0,3.45,1.14,3.45,3.02Zm-3.52-1.7h-2.15v3.39h2.23c1.1,0,1.89-.54,1.89-1.68s-.78-1.71-1.98-1.71Z"/><path class="cls-1" d="m91.98,412.17l-.73-1.84h-4.29l-.72,1.84h-1.58l3.69-9h1.5l3.69,9h-1.56Zm-1.23-3.1l-1.65-4.17-1.65,4.17h3.3Z"/><path class="cls-1" d="m98.16,408.34v-1.26h4.32v.88c0,2.67-1.54,4.41-4.12,4.41-2.79,0-4.48-2.1-4.48-4.69s1.75-4.71,4.53-4.71c2.23,0,3.21,1.15,3.21,1.15l-.87,1.14s-.84-.89-2.34-.89c-1.81,0-3,1.44-3,3.3s1.15,3.27,2.96,3.27c1.57,0,2.55-1.05,2.55-2.57v-.04h-2.75Z"/><path class="cls-1" d="m105.5,408.24v2.61h4.92v1.32h-6.4v-9h6.4v1.32h-4.92v2.49h4.19v1.26h-4.19Z"/><path class="cls-1" d="m170.84,393c1.21,0,1.74-.51,1.74-1.25,0-.69-.42-1.04-2.04-1.53-2.01-.6-2.98-1.27-2.98-2.68,0-1.54,1.17-2.56,3.3-2.56,2.23,0,3.13.92,3.13.92l-.81,1.21s-.85-.75-2.32-.75c-1.02,0-1.67.4-1.67,1.12,0,.61.48.92,2,1.36,2.17.62,3.04,1.41,3.04,2.81,0,1.53-1.1,2.73-3.35,2.73s-3.4-1.12-3.4-1.12l.81-1.12s1.05.87,2.55.87Z"/><path class="cls-1" d="m175.84,394.17v-9h1.48v9h-1.48Z"/><path class="cls-1" d="m186.22,394.17l-5.17-6.39v6.39h-1.48v-9h1.12l5.16,6.36v-6.36h1.48v9h-1.11Z"/><path class="cls-1" d="m193.28,390.34v-1.26h4.32v.88c0,2.67-1.54,4.41-4.12,4.41-2.79,0-4.48-2.1-4.48-4.69s1.75-4.71,4.53-4.71c2.23,0,3.21,1.15,3.21,1.15l-.87,1.14s-.84-.89-2.34-.89c-1.81,0-3,1.44-3,3.3s1.15,3.27,2.96,3.27c1.57,0,2.55-1.05,2.55-2.57v-.04h-2.75Z"/><path class="cls-1" d="m199.13,385.17h1.48v7.68h4.42v1.32h-5.91v-9Z"/><path class="cls-1" d="m208.03,390.24v2.61h4.92v1.32h-6.4v-9h6.4v1.32h-4.92v2.49h4.19v1.26h-4.19Z"/><path class="cls-1" d="m165.63,411c1.21,0,1.74-.51,1.74-1.25,0-.69-.42-1.04-2.04-1.53-2.01-.6-2.98-1.27-2.98-2.68,0-1.54,1.17-2.56,3.3-2.56,2.23,0,3.13.92,3.13.92l-.81,1.21s-.85-.75-2.32-.75c-1.02,0-1.67.4-1.67,1.12,0,.61.48.92,2,1.36,2.17.62,3.04,1.41,3.04,2.81,0,1.53-1.1,2.73-3.35,2.73s-3.4-1.12-3.4-1.12l.81-1.12s1.05.87,2.55.87Z"/><path class="cls-1" d="m170.63,412.17v-9h1.48v9h-1.48Z"/><path class="cls-1" d="m178.08,408.34v-1.26h4.32v.88c0,2.67-1.54,4.41-4.12,4.41-2.79,0-4.48-2.1-4.48-4.69s1.75-4.71,4.53-4.71c2.23,0,3.21,1.15,3.21,1.15l-.87,1.14s-.84-.89-2.34-.89c-1.81,0-3,1.44-3,3.3s1.15,3.27,2.96,3.27c1.57,0,2.55-1.05,2.55-2.57v-.04h-2.75Z"/><path class="cls-1" d="m190.59,412.17l-5.17-6.39v6.39h-1.48v-9h1.12l5.16,6.36v-6.36h1.49v9h-1.11Z"/><path class="cls-1" d="m197.82,408.13v1.2h-4.2v-1.2h4.2Z"/><path class="cls-1" d="m199.19,407.69c0-2.62,1.78-4.71,4.5-4.71s4.52,2.08,4.52,4.71-1.79,4.69-4.52,4.69-4.5-2.1-4.5-4.69Zm7.5,0c0-1.86-1.21-3.29-3-3.29s-2.97,1.42-2.97,3.29,1.2,3.25,2.97,3.25,3-1.41,3-3.25Z"/><path class="cls-1" d="m216.52,412.17l-5.17-6.39v6.39h-1.48v-9h1.12l5.16,6.36v-6.36h1.49v9h-1.11Z"/><path class="cls-1" d="m270.42,403.17l2.87,7.29,2.88-7.29h1.56l-3.69,9h-1.5l-3.69-9h1.58Z"/><path class="cls-1" d="m278.87,412.17v-9h1.48v9h-1.48Z"/><path class="cls-1" d="m289.74,406.19c0,1.39-.75,2.34-1.9,2.77v.08l2.16,2.92v.21h-1.63l-2.14-2.97h-2.15v2.97h-1.48v-9h3.71c2.11,0,3.45,1.14,3.45,3.02Zm-3.52-1.7h-2.15v3.39h2.24c1.09,0,1.89-.54,1.89-1.68s-.78-1.71-1.98-1.71Z"/><path class="cls-1" d="m297.75,403.17v1.32h-2.82v7.68h-1.49v-7.68h-2.82v-1.32h7.12Z"/><path class="cls-1" d="m299.1,408.36v-5.19h1.49v5.19c0,1.48.76,2.59,2.28,2.59s2.28-1.11,2.28-2.59v-5.19h1.48v5.19c0,2.34-1.38,4.02-3.76,4.02s-3.76-1.68-3.76-4.02Z"/><path class="cls-1" d="m314.73,412.17l-.74-1.84h-4.29l-.72,1.84h-1.58l3.69-9h1.5l3.69,9h-1.56Zm-1.23-3.1l-1.65-4.17-1.65,4.17h3.3Z"/><path class="cls-1" d="m317.43,403.17h1.48v7.68h4.42v1.32h-5.91v-9Z"/><path class="cls-1" d="m324.84,412.17v-9h1.49v9h-1.49Z"/><path class="cls-1" d="m332.99,404.49h-4.92v-1.32h6.9v1.1l-5,6.58h4.92v1.32h-6.99v-1.07l5.08-6.61Z"/><path class="cls-1" d="m342.81,412.17l-.74-1.84h-4.29l-.72,1.84h-1.58l3.69-9h1.5l3.69,9h-1.56Zm-1.23-3.1l-1.65-4.17-1.65,4.17h3.3Z"/><path class="cls-1" d="m350.94,403.17v1.32h-2.82v7.68h-1.49v-7.68h-2.82v-1.32h7.12Z"/><path class="cls-1" d="m352.41,412.17v-9h1.49v9h-1.49Z"/><path class="cls-1" d="m355.58,407.69c0-2.62,1.79-4.71,4.5-4.71s4.51,2.08,4.51,4.71-1.79,4.69-4.51,4.69-4.5-2.1-4.5-4.69Zm7.5,0c0-1.86-1.21-3.29-3-3.29s-2.97,1.42-2.97,3.29,1.2,3.25,2.97,3.25,3-1.41,3-3.25Z"/><path class="cls-1" d="m372.92,412.17l-5.17-6.39v6.39h-1.49v-9h1.12l5.16,6.36v-6.36h1.49v9h-1.11Z"/><path class="cls-1" d="m667.05,394.17l-5.17-6.39v6.39h-1.48v-9h1.12l5.16,6.36v-6.36h1.49v9h-1.11Z"/><path class="cls-1" d="m676.62,394.17l-.74-1.84h-4.29l-.72,1.84h-1.58l3.69-9h1.5l3.69,9h-1.56Zm-1.23-3.1l-1.65-4.17-1.65,4.17h3.3Z"/><path class="cls-1" d="m684.75,385.17v1.32h-2.82v7.68h-1.49v-7.68h-2.82v-1.32h7.12Z"/><path class="cls-1" d="m686.22,394.17v-9h1.49v9h-1.49Z"/><path class="cls-1" d="m689.39,389.69c0-2.62,1.79-4.71,4.5-4.71s4.51,2.08,4.51,4.71-1.79,4.69-4.51,4.69-4.5-2.1-4.5-4.69Zm7.5,0c0-1.86-1.21-3.29-3-3.29s-2.97,1.42-2.97,3.29,1.2,3.25,2.97,3.25,3-1.41,3-3.25Z"/><path class="cls-1" d="m706.73,394.17l-5.17-6.39v6.39h-1.49v-9h1.12l5.16,6.36v-6.36h1.48v9h-1.11Z"/><path class="cls-1" d="m716.3,394.17l-.73-1.84h-4.29l-.72,1.84h-1.58l3.69-9h1.5l3.69,9h-1.56Zm-1.23-3.1l-1.65-4.17-1.65,4.17h3.3Z"/><path class="cls-1" d="m719,385.17h1.49v7.68h4.42v1.32h-5.91v-9Z"/><path class="cls-1" d="m691.16,412.38c-2.76,0-4.54-2.1-4.54-4.69s1.78-4.71,4.54-4.71c2.07,0,3.03,1.12,3.03,1.12l-.85,1.15s-.78-.87-2.15-.87c-1.78,0-3.03,1.44-3.03,3.3s1.25,3.27,3.03,3.27c1.37,0,2.15-.86,2.15-.86l.85,1.14s-.96,1.14-3.03,1.14Z"/><path class="cls-1" d="m695.58,412.17v-9h1.48v9h-1.48Z"/><path class="cls-1" d="m675.97,457.68l-.73-1.84h-4.29l-.72,1.84h-1.58l3.69-9h1.5l3.69,9h-1.56Zm-1.23-3.1l-1.65-4.17-1.65,4.17h3.3Z"/><path class="cls-1" d="m682.39,457.89c-2.76,0-4.54-2.1-4.54-4.69s1.78-4.71,4.54-4.71c2.07,0,3.03,1.12,3.03,1.12l-.85,1.15s-.78-.87-2.15-.87c-1.78,0-3.03,1.44-3.03,3.3s1.25,3.27,3.03,3.27c1.37,0,2.15-.86,2.15-.86l.85,1.14s-.96,1.14-3.03,1.14Z"/><path class="cls-1" d="m690.6,457.89c-2.76,0-4.54-2.1-4.54-4.69s1.78-4.71,4.54-4.71c2.07,0,3.03,1.12,3.03,1.12l-.85,1.15s-.78-.87-2.15-.87c-1.78,0-3.03,1.44-3.03,3.3s1.25,3.27,3.03,3.27c1.37,0,2.15-.86,2.15-.86l.85,1.14s-.96,1.14-3.03,1.14Z"/><path class="cls-1" d="m696.51,453.75v2.61h4.92v1.32h-6.4v-9h6.4v1.32h-4.92v2.49h4.19v1.26h-4.19Z"/><path class="cls-1" d="m705.9,456.51c1.21,0,1.74-.51,1.74-1.25,0-.69-.42-1.04-2.04-1.53-2.01-.6-2.99-1.27-2.99-2.68,0-1.54,1.17-2.56,3.3-2.56,2.24,0,3.13.92,3.13.92l-.81,1.21s-.86-.75-2.33-.75c-1.02,0-1.67.4-1.67,1.12,0,.61.48.92,2,1.36,2.17.62,3.04,1.41,3.04,2.81,0,1.53-1.09,2.73-3.34,2.73s-3.41-1.12-3.41-1.12l.81-1.12s1.05.87,2.55.87Z"/><path class="cls-1" d="m713.67,456.51c1.21,0,1.74-.51,1.74-1.25,0-.69-.42-1.04-2.04-1.53-2.01-.6-2.98-1.27-2.98-2.68,0-1.54,1.17-2.56,3.3-2.56,2.23,0,3.13.92,3.13.92l-.81,1.21s-.85-.75-2.32-.75c-1.02,0-1.67.4-1.67,1.12,0,.61.48.92,2,1.36,2.17.62,3.04,1.41,3.04,2.81,0,1.53-1.1,2.73-3.35,2.73s-3.4-1.12-3.4-1.12l.81-1.12s1.05.87,2.55.87Z"/><path class="cls-1" d="m583.72,392.94c1.14,0,1.72-.6,1.74-2.04v-5.73h1.49v6.01c-.01,1.89-1.02,3.2-3.13,3.2-1.52,0-2.26-.76-2.28-.78l.71-1.17s.62.51,1.49.51Z"/><path class="cls-1" d="m588.52,389.69c0-2.62,1.78-4.71,4.5-4.71s4.52,2.08,4.52,4.71-1.79,4.69-4.52,4.69-4.5-2.1-4.5-4.69Zm7.5,0c0-1.86-1.21-3.29-3-3.29s-2.97,1.42-2.97,3.29,1.2,3.25,2.97,3.25,3-1.41,3-3.25Z"/><path class="cls-1" d="m603.28,394.17h-4.08v-9h3.94c2,0,3.11.87,3.11,2.45,0,.9-.5,1.59-1.26,1.92v.06c.91.25,1.53.98,1.53,2.01,0,1.69-1.26,2.56-3.24,2.56Zm-.15-7.68h-2.45v2.52h2.42c.98,0,1.59-.51,1.59-1.24,0-.86-.6-1.28-1.56-1.28Zm-2.45,6.36h2.62c.93,0,1.65-.48,1.65-1.32,0-.77-.67-1.25-1.53-1.29h-2.75v2.61Z"/><path class="cls-1" d="m556.24,411c1.21,0,1.74-.51,1.74-1.25,0-.69-.42-1.04-2.04-1.53-2.01-.6-2.99-1.27-2.99-2.68,0-1.54,1.17-2.56,3.3-2.56,2.24,0,3.13.92,3.13.92l-.81,1.21s-.86-.75-2.33-.75c-1.02,0-1.67.4-1.67,1.12,0,.61.48.92,2,1.36,2.17.62,3.04,1.41,3.04,2.81,0,1.53-1.09,2.73-3.34,2.73s-3.41-1.12-3.41-1.12l.81-1.12s1.05.87,2.55.87Z"/><path class="cls-1" d="m565.2,412.38c-2.76,0-4.54-2.1-4.54-4.69s1.79-4.71,4.54-4.71c2.07,0,3.03,1.12,3.03,1.12l-.86,1.15s-.78-.87-2.14-.87c-1.79,0-3.03,1.44-3.03,3.3s1.25,3.27,3.03,3.27c1.37,0,2.14-.86,2.14-.86l.86,1.14s-.96,1.14-3.03,1.14Z"/><path class="cls-1" d="m575.67,412.17v-3.83h-4.56v3.83h-1.49v-9h1.49v3.92h4.56v-3.92h1.49v9h-1.49Z"/><path class="cls-1" d="m580.87,408.24v2.61h4.92v1.32h-6.41v-9h6.41v1.32h-4.92v2.49h4.18v1.26h-4.18Z"/><path class="cls-1" d="m590.66,412.17h-3.18v-9h3.18c2.8,0,4.63,1.82,4.63,4.5s-1.83,4.5-4.63,4.5Zm-1.7-1.32h1.61c1.8,0,3.21-1.18,3.21-3.18s-1.41-3.18-3.21-3.18h-1.61v6.36Z"/><path class="cls-1" d="m596.86,408.36v-5.19h1.49v5.19c0,1.48.76,2.59,2.28,2.59s2.28-1.11,2.28-2.59v-5.19h1.48v5.19c0,2.34-1.38,4.02-3.76,4.02s-3.76-1.68-3.76-4.02Z"/><path class="cls-1" d="m606.49,403.17h1.48v7.68h4.42v1.32h-5.91v-9Z"/><path class="cls-1" d="m613.89,412.17v-9h1.49v9h-1.49Z"/><path class="cls-1" d="m624.27,412.17l-5.17-6.39v6.39h-1.49v-9h1.12l5.16,6.36v-6.36h1.49v9h-1.11Z"/><path class="cls-1" d="m631.34,408.34v-1.26h4.32v.88c0,2.67-1.54,4.41-4.12,4.41-2.79,0-4.48-2.1-4.48-4.69s1.75-4.71,4.53-4.71c2.24,0,3.21,1.15,3.21,1.15l-.87,1.14s-.84-.89-2.34-.89c-1.81,0-3,1.44-3,3.3s1.16,3.27,2.96,3.27c1.58,0,2.55-1.05,2.55-2.57v-.04h-2.75Z"/><path class="cls-1" d="m568.18,457.89c-2.76,0-4.54-2.1-4.54-4.69s1.78-4.71,4.54-4.71c2.07,0,3.03,1.12,3.03,1.12l-.85,1.15s-.78-.87-2.15-.87c-1.78,0-3.03,1.44-3.03,3.3s1.25,3.27,3.03,3.27c1.37,0,2.15-.86,2.15-.86l.85,1.14s-.96,1.14-3.03,1.14Z"/><path class="cls-1" d="m571.86,453.2c0-2.62,1.79-4.71,4.5-4.71s4.51,2.08,4.51,4.71-1.79,4.69-4.51,4.69-4.5-2.1-4.5-4.69Zm7.5,0c0-1.86-1.21-3.29-3-3.29s-2.97,1.42-2.97,3.29,1.2,3.25,2.97,3.25,3-1.41,3-3.25Z"/><path class="cls-1" d="m589.2,457.68l-5.17-6.39v6.39h-1.49v-9h1.12l5.16,6.36v-6.36h1.48v9h-1.11Z"/><path class="cls-1" d="m595.71,457.68h-3.18v-9h3.18c2.8,0,4.63,1.82,4.63,4.5s-1.83,4.5-4.63,4.5Zm-1.7-1.32h1.61c1.8,0,3.21-1.18,3.21-3.18s-1.41-3.18-3.21-3.18h-1.61v6.36Z"/><path class="cls-1" d="m601.47,453.2c0-2.62,1.78-4.71,4.5-4.71s4.52,2.08,4.52,4.71-1.79,4.69-4.52,4.69-4.5-2.1-4.5-4.69Zm7.5,0c0-1.86-1.21-3.29-3-3.29s-2.97,1.42-2.97,3.29,1.2,3.25,2.97,3.25,3-1.41,3-3.25Z"/><path class="cls-1" d="m619.3,451.7c0,1.39-.75,2.34-1.9,2.77v.08l2.16,2.92v.21h-1.63l-2.14-2.97h-2.15v2.97h-1.48v-9h3.71c2.11,0,3.45,1.14,3.45,3.02Zm-3.52-1.7h-2.15v3.39h2.24c1.09,0,1.89-.54,1.89-1.68s-.78-1.71-1.98-1.71Z"/><path class="cls-1" d="m147.07,457.89c-2.76,0-4.54-2.1-4.54-4.69s1.78-4.71,4.54-4.71c2.07,0,3.03,1.12,3.03,1.12l-.85,1.15s-.78-.87-2.15-.87c-1.78,0-3.03,1.44-3.03,3.3s1.25,3.27,3.03,3.27c1.37,0,2.15-.86,2.15-.86l.85,1.14s-.96,1.14-3.03,1.14Z"/><path class="cls-1" d="m157.74,457.68l-.73-1.84h-4.29l-.72,1.84h-1.58l3.69-9h1.5l3.69,9h-1.56Zm-1.23-3.1l-1.65-4.17-1.65,4.17h3.3Z"/><path class="cls-1" d="m163.11,456.51c1.21,0,1.74-.51,1.74-1.25,0-.69-.42-1.04-2.04-1.53-2.01-.6-2.98-1.27-2.98-2.68,0-1.54,1.17-2.56,3.3-2.56,2.23,0,3.13.92,3.13.92l-.81,1.21s-.85-.75-2.32-.75c-1.02,0-1.67.4-1.67,1.12,0,.61.48.92,2,1.36,2.17.62,3.04,1.41,3.04,2.81,0,1.53-1.1,2.73-3.35,2.73s-3.4-1.12-3.4-1.12l.81-1.12s1.05.87,2.55.87Z"/><path class="cls-1" d="m167.52,459.53l-.23-.79c.63-.15,1.02-.46,1.1-.92-.42-.09-.72-.43-.72-.87,0-.51.41-.9.9-.9s.9.39.9.9v.11c0,1.21-.69,2.23-1.95,2.47Z"/><path class="cls-1" d="m180.22,448.68h1.75v.18l-3.36,3.6,3.4,5.02v.2h-1.63l-2.79-4.12-1.6,1.71v2.42h-1.48v-9h1.48v4.52l4.23-4.52Z"/><path class="cls-1" d="m184.8,453.75v2.61h4.92v1.32h-6.4v-9h6.4v1.32h-4.92v2.49h4.19v1.26h-4.19Z"/><path class="cls-1" d="m198.33,448.68l-3.25,5.55v3.45h-1.49v-3.45l-3.25-5.55h1.67l2.01,3.53.33.73.33-.73,2.01-3.53h1.65Z"/><path class="cls-1" d="m202.98,457.89c-2.76,0-4.54-2.1-4.54-4.69s1.78-4.71,4.54-4.71c2.07,0,3.03,1.12,3.03,1.12l-.85,1.15s-.78-.87-2.15-.87c-1.78,0-3.03,1.44-3.03,3.3s1.25,3.27,3.03,3.27c1.37,0,2.15-.86,2.15-.86l.85,1.14s-.96,1.14-3.03,1.14Z"/><path class="cls-1" d="m207.4,448.68h1.48v7.68h4.42v1.32h-5.91v-9Z"/><path class="cls-1" d="m213.87,453.2c0-2.62,1.78-4.71,4.5-4.71s4.52,2.08,4.52,4.71-1.79,4.69-4.52,4.69-4.5-2.1-4.5-4.69Zm7.5,0c0-1.86-1.21-3.29-3-3.29s-2.97,1.42-2.97,3.29,1.2,3.25,2.97,3.25,3-1.41,3-3.25Z"/><path class="cls-1" d="m230.53,457.68l-.73-1.84h-4.29l-.72,1.84h-1.58l3.69-9h1.5l3.69,9h-1.56Zm-1.23-3.1l-1.65-4.17-1.65,4.17h3.3Z"/><path class="cls-1" d="m238.95,448.68h1.75v.18l-3.36,3.6,3.4,5.02v.2h-1.63l-2.79-4.12-1.6,1.71v2.42h-1.48v-9h1.48v4.52l4.23-4.52Z"/><path class="cls-1" d="m241.45,459.53l-.23-.79c.63-.15,1.02-.46,1.1-.92-.42-.09-.72-.43-.72-.87,0-.51.41-.9.9-.9s.9.39.9.9v.11c0,1.21-.69,2.23-1.95,2.47Z"/><path class="cls-1" d="m165.38,471.2c0-2.62,1.78-4.71,4.5-4.71s4.52,2.08,4.52,4.71-1.79,4.69-4.52,4.69-4.5-2.1-4.5-4.69Zm7.5,0c0-1.86-1.21-3.29-3-3.29s-2.97,1.42-2.97,3.29,1.2,3.25,2.97,3.25,3-1.41,3-3.25Z"/><path class="cls-1" d="m182.04,475.68l-.73-1.84h-4.29l-.72,1.84h-1.58l3.69-9h1.5l3.69,9h-1.56Zm-1.23-3.1l-1.65-4.17-1.65,4.17h3.3Z"/><path class="cls-1" d="m184.37,471.87v-5.19h1.49v5.19c0,1.48.76,2.59,2.28,2.59s2.28-1.11,2.28-2.59v-5.19h1.48v5.19c0,2.34-1.38,4.02-3.76,4.02s-3.77-1.68-3.77-4.02Z"/><path class="cls-1" d="m200.37,466.68v1.32h-2.82v7.68h-1.49v-7.68h-2.82v-1.32h7.12Z"/><path class="cls-1" d="m207.89,475.68v-3.83h-4.56v3.83h-1.48v-9h1.48v3.92h4.56v-3.92h1.48v9h-1.48Z"/><path class="cls-1" d="m217.97,471.02c.63-.63.81-1.02.81-1.59,0-.84-.63-1.51-1.67-1.51-1.1,0-1.85.76-2.11.99l-.8-1.19s1.11-1.23,3.03-1.23c2.11,0,3.24,1.25,3.24,2.79,0,.9-.25,1.59-1,2.32l-2.76,2.76h3.93v1.32h-6.28v-1.04l3.61-3.63Z"/><path class="cls-1" d="m57.87,449.34c0-.5.4-.88.9-.88s.92.39.92.88-.41.88-.92.88-.9-.38-.9-.88Zm1.63,2.04v6.3h-1.47v-6.3h1.47Z"/><path class="cls-1" d="m68.7,451.7c0,1.39-.75,2.34-1.9,2.77v.08l2.16,2.92v.21h-1.63l-2.15-2.97h-2.15v2.97h-1.48v-9h3.71c2.11,0,3.45,1.14,3.45,3.02Zm-3.52-1.7h-2.15v3.39h2.23c1.1,0,1.89-.54,1.89-1.68s-.78-1.71-1.98-1.71Z"/><path class="cls-1" d="m69.94,453.2c0-2.62,1.78-4.71,4.5-4.71s4.52,2.08,4.52,4.71-1.79,4.69-4.52,4.69-4.5-2.1-4.5-4.69Zm7.5,0c0-1.86-1.21-3.29-3-3.29s-2.97,1.42-2.97,3.29,1.2,3.25,2.97,3.25,3-1.41,3-3.25Z"/><path class="cls-1" d="m83.8,457.68h-3.18v-9h3.18c2.8,0,4.63,1.82,4.63,4.5s-1.83,4.5-4.63,4.5Zm-1.7-1.32h1.6c1.8,0,3.21-1.18,3.21-3.18s-1.41-3.18-3.21-3.18h-1.6v6.36Z"/><path class="cls-1" d="m92.86,456.51c1.21,0,1.74-.51,1.74-1.25,0-.69-.42-1.04-2.04-1.53-2.01-.6-2.98-1.27-2.98-2.68,0-1.54,1.17-2.56,3.3-2.56,2.23,0,3.13.92,3.13.92l-.81,1.21s-.85-.75-2.32-.75c-1.02,0-1.67.4-1.67,1.12,0,.61.48.92,2,1.36,2.17.62,3.04,1.41,3.04,2.81,0,1.53-1.1,2.73-3.35,2.73s-3.4-1.12-3.4-1.12l.81-1.12s1.05.87,2.55.87Z"/><path class="cls-1" d="m282.08,453.2c0-2.62,1.78-4.71,4.5-4.71s4.52,2.08,4.52,4.71-1.79,4.69-4.52,4.69-4.5-2.1-4.5-4.69Zm7.5,0c0-1.86-1.21-3.29-3-3.29s-2.97,1.42-2.97,3.29,1.2,3.25,2.97,3.25,3-1.41,3-3.25Z"/><path class="cls-1" d="m296.46,448.68c2.11,0,3.45,1.14,3.45,3.02s-1.38,3.07-3.48,3.07h-2.19v2.91h-1.48v-9h3.71Zm-.08,1.32h-2.15v3.46h2.16c1.19,0,1.98-.54,1.98-1.75s-.79-1.71-2-1.71Z"/><path class="cls-1" d="m302.9,453.75v2.61h4.92v1.32h-6.4v-9h6.4v1.32h-4.92v2.49h4.19v1.26h-4.19Z"/><path class="cls-1" d="m316.17,457.68l-5.17-6.39v6.39h-1.48v-9h1.12l5.16,6.36v-6.36h1.48v9h-1.11Z"/><path class="cls-1" d="m322.28,456.51c1.21,0,1.74-.51,1.74-1.25,0-.69-.42-1.04-2.04-1.53-2.01-.6-2.98-1.27-2.98-2.68,0-1.54,1.17-2.56,3.3-2.56,2.23,0,3.13.92,3.13.92l-.81,1.21s-.85-.75-2.32-.75c-1.02,0-1.67.4-1.67,1.12,0,.61.48.92,2,1.36,2.17.62,3.04,1.41,3.04,2.81,0,1.53-1.1,2.73-3.35,2.73s-3.4-1.12-3.4-1.12l.81-1.12s1.05.87,2.55.87Z"/><path class="cls-1" d="m333.65,448.68v1.32h-2.82v7.68h-1.49v-7.68h-2.82v-1.32h7.12Z"/><path class="cls-1" d="m340.41,457.68l-.73-1.84h-4.29l-.72,1.84h-1.58l3.69-9h1.5l3.69,9h-1.56Zm-1.23-3.1l-1.65-4.17-1.65,4.17h3.3Z"/><path class="cls-1" d="m346.83,457.89c-2.76,0-4.54-2.1-4.54-4.69s1.78-4.71,4.54-4.71c2.07,0,3.03,1.12,3.03,1.12l-.85,1.15s-.78-.87-2.15-.87c-1.78,0-3.03,1.44-3.03,3.3s1.25,3.27,3.03,3.27c1.37,0,2.15-.86,2.15-.86l.85,1.14s-.96,1.14-3.03,1.14Z"/><path class="cls-1" d="m356.97,448.68h1.75v.18l-3.36,3.6,3.4,5.02v.2h-1.63l-2.79-4.12-1.6,1.71v2.42h-1.48v-9h1.48v4.52l4.23-4.52Z"/><path class="cls-1" d="m432.67,448.68h1.75v.18l-3.36,3.6,3.41,5.02v.2h-1.63l-2.79-4.12-1.61,1.71v2.42h-1.48v-9h1.48v4.52l4.23-4.52Z"/><path class="cls-1" d="m435.64,453.87v-5.19h1.49v5.19c0,1.48.76,2.59,2.28,2.59s2.28-1.11,2.28-2.59v-5.19h1.48v5.19c0,2.34-1.38,4.02-3.76,4.02s-3.76-1.68-3.76-4.02Z"/><path class="cls-1" d="m449.35,457.68h-4.08v-9h3.94c2,0,3.11.87,3.11,2.45,0,.9-.5,1.59-1.26,1.92v.06c.91.25,1.53.98,1.53,2.01,0,1.69-1.26,2.56-3.24,2.56Zm-.15-7.68h-2.45v2.52h2.42c.98,0,1.59-.51,1.59-1.24,0-.86-.6-1.28-1.56-1.28Zm-2.45,6.36h2.62c.93,0,1.65-.48,1.65-1.32,0-.77-.67-1.25-1.53-1.29h-2.75v2.61Z"/><path class="cls-1" d="m455.78,453.75v2.61h4.92v1.32h-6.41v-9h6.41v1.32h-4.92v2.49h4.18v1.26h-4.18Z"/><path class="cls-1" d="m469.55,451.7c0,1.39-.75,2.34-1.9,2.77v.08l2.16,2.92v.21h-1.63l-2.14-2.97h-2.15v2.97h-1.48v-9h3.71c2.11,0,3.45,1.14,3.45,3.02Zm-3.52-1.7h-2.15v3.39h2.24c1.09,0,1.89-.54,1.89-1.68s-.78-1.71-1.98-1.71Z"/><path class="cls-1" d="m478.04,457.68l-5.17-6.39v6.39h-1.49v-9h1.12l5.16,6.36v-6.36h1.49v9h-1.11Z"/><path class="cls-1" d="m482.85,453.75v2.61h4.92v1.32h-6.4v-9h6.4v1.32h-4.92v2.49h4.19v1.26h-4.19Z"/><path class="cls-1" d="m495.84,448.68v1.32h-2.82v7.68h-1.49v-7.68h-2.82v-1.32h7.12Z"/><path class="cls-1" d="m498.8,453.75v2.61h4.92v1.32h-6.41v-9h6.41v1.32h-4.92v2.49h4.18v1.26h-4.18Z"/><path class="cls-1" d="m508.19,456.51c1.21,0,1.74-.51,1.74-1.25,0-.69-.42-1.04-2.04-1.53-2.01-.6-2.98-1.27-2.98-2.68,0-1.54,1.17-2.56,3.3-2.56,2.23,0,3.13.92,3.13.92l-.81,1.21s-.85-.75-2.32-.75c-1.02,0-1.67.4-1.67,1.12,0,.61.48.92,2,1.36,2.17.62,3.04,1.41,3.04,2.81,0,1.53-1.1,2.73-3.35,2.73s-3.4-1.12-3.4-1.12l.81-1.12s1.05.87,2.55.87Z"/><path class="cls-1" d="m431.26,394.38c-2.76,0-4.54-2.1-4.54-4.69s1.78-4.71,4.54-4.71c2.07,0,3.03,1.12,3.03,1.12l-.85,1.15s-.78-.87-2.15-.87c-1.78,0-3.03,1.44-3.03,3.3s1.25,3.27,3.03,3.27c1.37,0,2.15-.86,2.15-.86l.85,1.14s-.96,1.14-3.03,1.14Z"/><path class="cls-1" d="m434.93,389.69c0-2.62,1.79-4.71,4.5-4.71s4.51,2.08,4.51,4.71-1.79,4.69-4.51,4.69-4.5-2.1-4.5-4.69Zm7.5,0c0-1.86-1.21-3.29-3-3.29s-2.97,1.42-2.97,3.29,1.2,3.25,2.97,3.25,3-1.41,3-3.25Z"/><path class="cls-1" d="m452.27,394.17l-5.17-6.39v6.39h-1.49v-9h1.12l5.16,6.36v-6.36h1.48v9h-1.11Z"/><path class="cls-1" d="m461.98,385.17v1.32h-2.82v7.68h-1.49v-7.68h-2.82v-1.32h7.12Z"/><path class="cls-1" d="m468.74,394.17l-.74-1.84h-4.29l-.72,1.84h-1.58l3.69-9h1.5l3.69,9h-1.56Zm-1.23-3.1l-1.65-4.17-1.65,4.17h3.3Z"/><path class="cls-1" d="m471.44,394.17v-9h1.48v9h-1.48Z"/><path class="cls-1" d="m481.82,394.17l-5.17-6.39v6.39h-1.48v-9h1.12l5.16,6.36v-6.36h1.49v9h-1.11Z"/><path class="cls-1" d="m486.64,390.24v2.61h4.92v1.32h-6.41v-9h6.41v1.32h-4.92v2.49h4.18v1.26h-4.18Z"/><path class="cls-1" d="m500.41,388.19c0,1.39-.75,2.34-1.9,2.77v.08l2.16,2.92v.21h-1.63l-2.14-2.97h-2.15v2.97h-1.48v-9h3.71c2.11,0,3.45,1.14,3.45,3.02Zm-3.52-1.7h-2.15v3.39h2.24c1.09,0,1.89-.54,1.89-1.68s-.78-1.71-1.98-1.71Z"/><path class="cls-1" d="m409.43,407.69c0-2.62,1.79-4.71,4.5-4.71s4.51,2.08,4.51,4.71-1.79,4.69-4.51,4.69-4.5-2.1-4.5-4.69Zm7.5,0c0-1.86-1.21-3.29-3-3.29s-2.97,1.42-2.97,3.29,1.2,3.25,2.97,3.25,3-1.41,3-3.25Z"/><path class="cls-1" d="m427.27,406.19c0,1.39-.75,2.34-1.91,2.77v.08l2.16,2.92v.21h-1.63l-2.15-2.97h-2.14v2.97h-1.49v-9h3.71c2.12,0,3.45,1.14,3.45,3.02Zm-3.53-1.7h-2.14v3.39h2.23c1.1,0,1.89-.54,1.89-1.68s-.78-1.71-1.98-1.71Z"/><path class="cls-1" d="m433.04,412.38c-2.76,0-4.54-2.1-4.54-4.69s1.78-4.71,4.54-4.71c2.07,0,3.03,1.12,3.03,1.12l-.85,1.15s-.78-.87-2.15-.87c-1.78,0-3.03,1.44-3.03,3.3s1.25,3.27,3.03,3.27c1.37,0,2.15-.86,2.15-.86l.85,1.14s-.96,1.14-3.03,1.14Z"/><path class="cls-1" d="m443.51,412.17v-3.83h-4.56v3.83h-1.48v-9h1.48v3.92h4.56v-3.92h1.48v9h-1.48Z"/><path class="cls-1" d="m448.7,408.24v2.61h4.92v1.32h-6.4v-9h6.4v1.32h-4.92v2.49h4.19v1.26h-4.19Z"/><path class="cls-1" d="m458.09,411c1.21,0,1.74-.51,1.74-1.25,0-.69-.42-1.04-2.04-1.53-2.01-.6-2.99-1.27-2.99-2.68,0-1.54,1.17-2.56,3.3-2.56,2.24,0,3.13.92,3.13.92l-.81,1.21s-.86-.75-2.33-.75c-1.02,0-1.67.4-1.67,1.12,0,.61.48.92,2,1.36,2.17.62,3.04,1.41,3.04,2.81,0,1.53-1.09,2.73-3.34,2.73s-3.41-1.12-3.41-1.12l.81-1.12s1.05.87,2.55.87Z"/><path class="cls-1" d="m469.46,403.17v1.32h-2.82v7.68h-1.49v-7.68h-2.82v-1.32h7.12Z"/><path class="cls-1" d="m478.09,406.19c0,1.39-.75,2.34-1.9,2.77v.08l2.16,2.92v.21h-1.63l-2.14-2.97h-2.15v2.97h-1.48v-9h3.71c2.11,0,3.45,1.14,3.45,3.02Zm-3.52-1.7h-2.15v3.39h2.24c1.09,0,1.89-.54,1.89-1.68s-.78-1.71-1.98-1.71Z"/><path class="cls-1" d="m486.1,412.17l-.73-1.84h-4.29l-.72,1.84h-1.58l3.69-9h1.5l3.69,9h-1.56Zm-1.23-3.1l-1.65-4.17-1.65,4.17h3.3Z"/><path class="cls-1" d="m494.23,403.17v1.32h-2.82v7.68h-1.49v-7.68h-2.82v-1.32h7.12Z"/><path class="cls-1" d="m495.7,412.17v-9h1.48v9h-1.48Z"/><path class="cls-1" d="m498.86,407.69c0-2.62,1.78-4.71,4.5-4.71s4.52,2.08,4.52,4.71-1.79,4.69-4.52,4.69-4.5-2.1-4.5-4.69Zm7.5,0c0-1.86-1.21-3.29-3-3.29s-2.97,1.42-2.97,3.29,1.2,3.25,2.97,3.25,3-1.41,3-3.25Z"/><path class="cls-1" d="m516.2,412.17l-5.17-6.39v6.39h-1.48v-9h1.12l5.16,6.36v-6.36h1.49v9h-1.11Z"/><line class="cls-3" x1="594.21" y1="423.53" x2="594.21" y2="435.97"/><line class="cls-3" x1="693.09" y1="422.59" x2="693.09" y2="435.03"/><line class="cls-3" x1="468.63" y1="423.14" x2="468.63" y2="435.58"/><line class="cls-3" x1="320.63" y1="423.14" x2="320.63" y2="435.58"/><line class="cls-3" x1="192.63" y1="423.43" x2="192.63" y2="435.86"/><line class="cls-3" x1="77.04" y1="422.76" x2="77.04" y2="435.19"/><line class="cls-3" x1="27.01" y1="428.81" x2="740.02" y2="428.81"/><line class="cls-4" x1="129.01" y1="352.81" x2="129.01" y2="504.79"/><line class="cls-4" x1="255.68" y1="358.19" x2="255.68" y2="510.17"/><line class="cls-4" x1="390.68" y1="351.19" x2="390.68" y2="503.17"/><line class="cls-4" x1="535.68" y1="358.19" x2="535.68" y2="510.17"/><line class="cls-4" x1="645.68" y1="349.19" x2="645.68" y2="501.17"/><rect class="cls-8" x="26.86" y="532.7" width="713.01" height="138.89" rx="23.47" ry="23.47"/><path class="cls-1" d="m360.61,559.5c-.93-.49-1.83-.34-2.66.25-.75.54-1.32,1.27-1.92,1.96-1.41,1.6-3.16,2.48-5.27,2.7-1.3.14-2.55.03-3.76-.25-1.49.69-3.06.79-4.67.24-2.12-.72-3.49-2.16-4.09-4.2-1.81-.58-3.67-.76-5.58-.55-2.17.24-4.2.92-6.09,2.02-1.84,1.07-3.41,2.44-4.7,4.14-.64.84-1.13,1.73-1.12,2.81,0,1.48,1.26,2.61,2.63,2.36.87-.16,1.5-.71,2.02-1.39.94-1.22,1.94-2.38,3.33-3.13,1.67-.91,3.42-1.11,5.26-.69.3.07.31.17.18.41-1.21,2.22-2.43,4.44-3.62,6.66-1.2,2.24-2.38,4.49-3.57,6.73-1.22,2.3-2.45,4.6-3.67,6.9-.91,1.71-1.81,3.42-2.71,5.13-.79,1.49-1.6,2.98-2.35,4.49-.56,1.13-.56,2.27.26,3.31.42.52.98.82,1.62,1,.06.02.13,0,.16.08h1.09c0-.06.04-.09.09-.11,1.03-.34,1.64-1.15,2.15-2.02,1.99-3.39,3.96-6.79,5.94-10.19.7-1.2,1.41-2.41,2.1-3.61.11-.19.2-.22.39-.13,1.79.83,3.61,1.6,5.33,2.57.14.08.28.17.44.27-.35.33-.76.52-1.14.76-1.84,1.17-3.7,2.31-5.53,3.49-1.89,1.21-1.87,3.81.05,4.98.86.52,1.78.39,2.65.04,1.63-.67,3.18-1.53,4.76-2.31,1.76-.87,3.52-1.72,5.23-2.68.8-.44,1.64-.83,2.24-1.56.76-.93,1.29-1.93,1.06-3.19-.16-.9-.72-1.52-1.45-2.01-2.17-1.49-4.34-2.98-6.51-4.46-.2-.13-.2-.25-.1-.44,1.09-1.97,2.09-4,3.22-5.95.61-1.06,1.21-2.13,1.8-3.2.11-.2.21-.27.45-.2,2.46.66,4.93.73,7.39.07,2.18-.59,4.1-1.66,5.81-3.13,1.22-1.05,2.27-2.25,3.22-3.54.5-.68.85-1.42.84-2.28,0-.93-.36-1.69-1.21-2.14Z"/><path class="cls-1" d="m343.13,561.9c1.64.56,3.22.3,4.68-.69,1.87-1.26,2.6-3.63,2-5.67-.57-1.95-1.9-3.17-3.88-3.67-.13-.03-.29,0-.38-.14h-1.4c-.29.08-.57.17-.86.25-2.41.66-4.07,3.23-3.67,5.69.34,2.1,1.52,3.55,3.51,4.23Z"/><rect class="cls-1" x="262.93" y="597.87" width="59.47" height="2.87" rx="1.43" ry="1.43"/><rect class="cls-1" x="278.57" y="587.53" width="38.33" height="2.17" rx="1.08" ry="1.08"/><rect class="cls-1" x="294" y="578.88" width="25.28" height="2.17" rx="1.08" ry="1.08"/><path class="cls-1" d="m492.82,555.51c1.7,0,3.4,0,5.11,0,.14.03.27.07.41.09,1.87.23,3.76.37,5.61.7,1.78.32,3.53.8,5.28,1.28,2,.55,3.84,1.45,5.55,2.63.99.69,1.87,1.47,2.63,2.41,1.26,1.56,1.79,3.32,1.79,5.31-.01,11.57-.02,23.15,0,34.72,0,2.73-1.1,4.92-3.12,6.62-1.13.95-2.43,1.74-3.73,2.45-1.03.56-2.16.97-3.28,1.3-1.55.47-3.13.86-4.71,1.18-1.23.25-2.48.41-3.73.51-5.12.4-10.22.44-15.25-.8-1.5-.37-3-.75-4.47-1.23-1.06-.35-2.07-.87-3.09-1.32-1.41-.63-2.63-1.54-3.73-2.63-1.67-1.67-2.54-3.65-2.54-6.03.01-11.59.03-23.18-.01-34.78-.01-2.95,1.25-5.22,3.45-6.99,1.17-.94,2.51-1.68,3.85-2.37,1.07-.55,2.24-.97,3.4-1.29,1.73-.48,3.49-.86,5.26-1.2.99-.19,2-.24,3.01-.34.77-.08,1.55-.15,2.32-.22Zm3.37,3.65c-3.51.16-6.25.17-8.95.78-1.92.44-3.86.77-5.71,1.5-1.77.7-3.47,1.47-4.85,2.8-.51.49-.97,1.08-1.32,1.7-.41.73-.52,1.56-.32,2.42.33,1.43,1.31,2.39,2.41,3.24,1.37,1.06,2.97,1.76,4.59,2.32,1.52.53,3.1.98,4.69,1.25,2.06.34,4.14.56,6.22.67,3.96.21,7.91.07,11.8-.87,1.71-.41,3.42-.79,5.06-1.49,1.7-.73,3.32-1.55,4.61-2.9,1.87-1.96,1.81-4.03.07-5.98-.94-1.05-2.15-1.76-3.39-2.39-.97-.49-1.99-.92-3.03-1.21-1.73-.49-3.48-.98-5.25-1.23-2.45-.35-4.93-.47-6.63-.62Zm19.61,25.63c-.22.25-.34.42-.49.55-1.13.99-2.38,1.82-3.73,2.46-1.09.51-2.24.96-3.4,1.29-2.38.66-4.79,1.2-7.26,1.43-4.65.44-9.28.47-13.9-.44-2.01-.4-4.03-.72-5.93-1.52-.81-.34-1.6-.7-2.41-1.05-1.4-.61-2.59-1.53-3.74-2.65,0,.24,0,.4,0,.57,0,1.93.06,3.87-.02,5.8-.08,1.92.86,3.25,2.24,4.38,1.27,1.04,2.75,1.7,4.25,2.3,1.2.48,2.47.83,3.73,1.14,2.57.62,5.2.9,7.84.99,4.52.15,9.02.03,13.41-1.26,1.23-.36,2.46-.74,3.64-1.23,1.06-.45,2.1-.99,3.06-1.63.69-.46,1.31-1.07,1.85-1.71.51-.61.84-1.36.85-2.18.02-2.36,0-4.71,0-7.21Zm-40.86,11.32c0,2.02.07,4.06-.02,6.09-.1,2.12.98,3.53,2.52,4.73,1.29,1,2.78,1.67,4.29,2.22,1.57.57,3.2,1,4.84,1.33,1.52.31,3.08.47,4.63.58,4.78.35,9.55.31,14.23-.93,1.46-.39,2.9-.84,4.33-1.33,1.77-.6,3.36-1.55,4.67-2.89.87-.89,1.39-1.94,1.38-3.22-.01-2.06,0-4.11,0-6.17,0-.15-.02-.3-.04-.55-.28.3-.47.55-.71.75-1.16.95-2.42,1.77-3.79,2.37-1.14.51-2.31.99-3.52,1.27-2.23.52-4.48,1.02-6.75,1.29-4.37.51-8.75.54-13.11-.29-1.94-.37-3.89-.63-5.77-1.29-1.59-.55-3.16-1.13-4.58-2.02-.9-.56-1.71-1.27-2.6-1.94Zm0-21.87c0,2.05.05,3.98-.01,5.91-.06,1.78.8,3.06,2.06,4.15,1.14.99,2.5,1.65,3.87,2.22,1.28.54,2.61,1.03,3.97,1.27,2.9.5,5.83.92,8.77,1.17,1.73.15,3.49-.03,5.23-.16,2.66-.2,5.31-.44,7.88-1.25,1.44-.46,2.89-.85,4.26-1.53,1.37-.67,2.65-1.45,3.67-2.6.75-.83,1.17-1.79,1.17-2.93,0-1.93,0-3.86,0-5.79,0-.13-.03-.25-.04-.35-1.12.69-2.18,1.43-3.31,2.01-1.03.53-2.12.97-3.22,1.3-2.35.7-4.72,1.32-7.17,1.59-5.46.6-10.9.67-16.3-.54-1.66-.37-3.36-.62-4.93-1.35-1.27-.59-2.59-1.1-3.84-1.73-.7-.35-1.31-.86-2.05-1.37Z"/><path class="cls-1" d="m512.38,592.68c.02.87-.69,1.86-1.69,1.86-.99,0-1.7-.99-1.69-1.87.01-1.05.73-1.85,1.69-1.85.96,0,1.69.81,1.69,1.85Z"/><path class="cls-1" d="m512.38,603.85c0,1.02-.77,1.85-1.7,1.85-.93,0-1.69-.84-1.68-1.87,0-1.08.71-1.84,1.7-1.83.98,0,1.69.78,1.69,1.85Z"/><path class="cls-1" d="m509,581.5c0-1.03.77-1.84,1.72-1.83.93.01,1.67.86,1.66,1.9-.02,1.04-.74,1.8-1.7,1.8-.97,0-1.69-.8-1.68-1.87Z"/><path class="cls-1" d="m676.31,610.74h-37.68c-.1-.23-.34-.18-.52-.25-1.52-.58-2.4-1.67-2.65-3.27-.12-.75-.05-1.51-.06-2.26,0-.78-.08-1.58.03-2.34.27-1.89.63-3.77.97-5.65.06-.32.04-.55-.18-.81-.45-.54-.68-1.18-.77-1.88-.13-.99-.04-1.99-.06-2.99-.01-.54-.06-1.09.03-1.61.31-1.91.67-3.82,1.01-5.72.04-.22.03-.41-.13-.6-.53-.64-.82-1.39-.87-2.22-.08-1.43-.02-2.86-.03-4.28,0-.07.03-.13.05-.2.58-2.13,1.16-4.25,1.74-6.38.73-2.66,1.48-5.31,2.17-7.97.27-1.03.79-1.78,1.84-2.1.06-.02.09-.05.1-.11h32.35c.42.21.88.32,1.26.65.58.5.71,1.18.89,1.85.57,2.07,1.15,4.14,1.72,6.21.56,2.05,1.11,4.1,1.68,6.14.31,1.13.61,2.25.52,3.44-.05.71-.01,1.43,0,2.14,0,1.05-.24,2.03-.93,2.85-.13.15-.15.3-.12.48.23,1.31.48,2.62.69,3.93.12.74.34,1.47.35,2.23.02,1.17,0,2.34,0,3.52,0,1.01-.26,1.94-.92,2.73-.13.15-.16.29-.13.48.24,1.32.47,2.65.7,3.97.12.7.3,1.4.33,2.11.05,1.25.03,2.5.01,3.76-.03,1.95-1.13,3.39-3,3.97-.13.04-.3,0-.38.16Zm-18.75-2c5.96,0,11.91,0,17.87,0,1.46,0,2.27-.82,2.27-2.28,0-1.17,0-2.34,0-3.52,0-1.47-.83-2.29-2.31-2.29-11.34,0-22.69,0-34.03,0-.62,0-1.24,0-1.86,0-1.2.02-2.07.86-2.09,2.06-.02,1.33-.02,2.67,0,4,.01.92.54,1.6,1.41,1.91.31.11.63.11.96.11,5.93,0,11.86,0,17.78,0Zm-.01-33.9c-2.12,0-4.23,0-6.35,0-3.85,0-7.71,0-11.56,0-1.41,0-2.23.83-2.23,2.23,0,1.21,0,2.43,0,3.64,0,.44.07.86.31,1.23.45.72,1.14.98,1.96.98,5.77,0,11.53,0,17.3,0,6.16,0,12.32,0,18.47,0,1.42,0,2.25-.81,2.26-2.21.01-1.24,0-2.48,0-3.72,0-.5-.12-.95-.44-1.35-.49-.61-1.13-.8-1.89-.8-5.94,0-11.88,0-17.83,0Zm0,12.92c-5.94,0-11.88.02-17.82-.01-1.42,0-2.4.95-2.34,2.36.05,1.13,0,2.26.01,3.39,0,1.53.82,2.35,2.33,2.35,11.88,0,23.77,0,35.65,0,1.47,0,2.3-.83,2.31-2.3,0-1.15-.04-2.29.01-3.44.06-1.43-.91-2.38-2.37-2.37-5.93.04-11.86.01-17.78.02Z"/><path class="cls-1" d="m671.3,578.84c0-.81.61-1.44,1.42-1.44.79,0,1.44.64,1.44,1.43,0,.77-.66,1.45-1.43,1.45-.77,0-1.42-.65-1.43-1.44Z"/><rect class="cls-1" x="640.11" y="577.47" width="19.33" height="2.75" rx="1.37" ry="1.37" transform="translate(1299.54 1157.69) rotate(-180)"/><path class="cls-1" d="m671.3,592.1c0-.81.61-1.44,1.42-1.44.79,0,1.44.64,1.44,1.43,0,.77-.66,1.45-1.43,1.45-.77,0-1.42-.65-1.43-1.44Z"/><rect class="cls-1" x="640.11" y="590.73" width="19.33" height="2.75" rx="1.37" ry="1.37" transform="translate(1299.54 1184.21) rotate(-180)"/><path class="cls-1" d="m671.3,604.69c0-.81.61-1.44,1.42-1.44.79,0,1.44.64,1.44,1.43,0,.77-.66,1.45-1.43,1.45-.77,0-1.42-.65-1.43-1.44Z"/><rect class="cls-1" x="640.11" y="603.32" width="19.33" height="2.75" rx="1.37" ry="1.37" transform="translate(1299.54 1209.39) rotate(-180)"/><path class="cls-1" d="m71.88,640.02c-2.95,0-4.85-2.24-4.85-5.01s1.9-5.03,4.85-5.03c2.21,0,3.23,1.2,3.23,1.2l-.91,1.23s-.83-.93-2.29-.93c-1.9,0-3.23,1.54-3.23,3.52s1.33,3.49,3.23,3.49c1.46,0,2.29-.91,2.29-.91l.91,1.22s-1.02,1.22-3.23,1.22Z"/><path class="cls-1" d="m76.6,630.19h1.58v8.2h4.72v1.41h-6.31v-9.6Z"/><path class="cls-1" d="m83.49,635.01c0-2.8,1.9-5.03,4.8-5.03s4.82,2.22,4.82,5.03-1.9,5.01-4.82,5.01-4.8-2.24-4.8-5.01Zm8,0c0-1.98-1.3-3.5-3.2-3.5s-3.17,1.52-3.17,3.5,1.28,3.47,3.17,3.47,3.2-1.5,3.2-3.47Z"/><path class="cls-1" d="m94.76,635.73v-5.54h1.58v5.54c0,1.58.82,2.77,2.43,2.77s2.43-1.18,2.43-2.77v-5.54h1.58v5.54c0,2.5-1.47,4.29-4.02,4.29s-4.02-1.79-4.02-4.29Z"/><path class="cls-1" d="m108.42,639.8h-3.39v-9.6h3.39c2.99,0,4.95,1.94,4.95,4.8s-1.95,4.8-4.95,4.8Zm-1.81-1.41h1.71c1.92,0,3.43-1.26,3.43-3.39s-1.5-3.39-3.43-3.39h-1.71v6.79Z"/><path class="cls-1" d="m121.54,638.55c1.3,0,1.86-.54,1.86-1.33,0-.74-.45-1.1-2.18-1.63-2.15-.64-3.19-1.36-3.19-2.87,0-1.65,1.25-2.74,3.52-2.74,2.39,0,3.35.98,3.35.98l-.86,1.3s-.91-.8-2.48-.8c-1.09,0-1.78.43-1.78,1.2,0,.66.51.98,2.13,1.46,2.32.66,3.25,1.5,3.25,2.99,0,1.63-1.17,2.91-3.57,2.91s-3.63-1.2-3.63-1.2l.86-1.2s1.12.93,2.72.93Z"/><path class="cls-1" d="m134.04,630.19l-3.47,5.92v3.68h-1.58v-3.68l-3.47-5.92h1.78l2.15,3.76.35.79.35-.79,2.15-3.76h1.76Z"/><path class="cls-1" d="m137.96,638.55c1.3,0,1.86-.54,1.86-1.33,0-.74-.45-1.1-2.18-1.63-2.15-.64-3.19-1.36-3.19-2.87,0-1.65,1.25-2.74,3.52-2.74,2.39,0,3.35.98,3.35.98l-.86,1.3s-.91-.8-2.48-.8c-1.09,0-1.78.43-1.78,1.2,0,.66.51.98,2.13,1.46,2.32.66,3.25,1.5,3.25,2.99,0,1.63-1.17,2.91-3.57,2.91s-3.63-1.2-3.63-1.2l.86-1.2s1.12.93,2.72.93Z"/><path class="cls-1" d="m150.09,630.19v1.41h-3.01v8.2h-1.58v-8.2h-3.01v-1.41h7.6Z"/><path class="cls-1" d="m153.24,635.6v2.79h5.25v1.41h-6.83v-9.6h6.83v1.41h-5.25v2.66h4.47v1.34h-4.47Z"/><path class="cls-1" d="m165.21,636.72h-.58l-2.75-3.57v6.64h-1.58v-9.6h1.22l3.41,4.48,3.43-4.48h1.18l.02,9.6h-1.57v-6.69l-2.77,3.62Z"/><path class="cls-1" d="m174.87,638.55c1.3,0,1.86-.54,1.86-1.33,0-.74-.45-1.1-2.18-1.63-2.15-.64-3.19-1.36-3.19-2.87,0-1.65,1.25-2.74,3.52-2.74,2.39,0,3.35.98,3.35.98l-.86,1.3s-.91-.8-2.48-.8c-1.09,0-1.78.43-1.78,1.2,0,.66.51.98,2.13,1.46,2.32.66,3.25,1.5,3.25,2.99,0,1.63-1.17,2.91-3.57,2.91s-3.63-1.2-3.63-1.2l.86-1.2s1.12.93,2.72.93Z"/><path class="cls-1" d="m248.03,633.8v-4.08h-4.87v4.08h-1.58v-9.6h1.58v4.18h4.87v-4.18h1.58v9.6h-1.58Z"/><path class="cls-1" d="m251.98,633.8v-9.6h1.58v9.6h-1.58Z"/><path class="cls-1" d="m259.93,629.71v-1.34h4.61v.94c0,2.85-1.65,4.71-4.4,4.71-2.98,0-4.79-2.24-4.79-5.01s1.87-5.03,4.83-5.03c2.38,0,3.43,1.23,3.43,1.23l-.93,1.22s-.9-.94-2.5-.94c-1.94,0-3.2,1.54-3.2,3.52s1.23,3.49,3.15,3.49c1.68,0,2.72-1.12,2.72-2.74v-.05h-2.93Z"/><path class="cls-1" d="m272.62,633.8v-4.08h-4.87v4.08h-1.58v-9.6h1.58v4.18h4.87v-4.18h1.58v9.6h-1.58Z"/><path class="cls-1" d="m283.94,624.19c2.26,0,3.68,1.22,3.68,3.22s-1.47,3.28-3.71,3.28h-2.34v3.11h-1.58v-9.6h3.95Zm-.08,1.41h-2.29v3.7h2.31c1.26,0,2.11-.58,2.11-1.87s-.85-1.83-2.13-1.83Z"/><path class="cls-1" d="m290.81,629.6v2.79h5.25v1.41h-6.83v-9.6h6.83v1.41h-5.25v2.66h4.47v1.34h-4.47Z"/><path class="cls-1" d="m305.5,627.41c0,1.49-.8,2.5-2.03,2.96v.08l2.31,3.12v.22h-1.74l-2.29-3.17h-2.29v3.17h-1.58v-9.6h3.95c2.26,0,3.68,1.22,3.68,3.22Zm-3.76-1.81h-2.29v3.62h2.39c1.17,0,2.02-.58,2.02-1.79s-.83-1.83-2.11-1.83Z"/><path class="cls-1" d="m309.03,629.62v4.18h-1.58v-9.6h6.87v1.41h-5.28v2.67h4.47v1.34h-4.47Z"/><path class="cls-1" d="m315.16,629.01c0-2.8,1.9-5.03,4.8-5.03s4.82,2.22,4.82,5.03-1.9,5.01-4.82,5.01-4.8-2.24-4.8-5.01Zm8,0c0-1.98-1.3-3.5-3.2-3.5s-3.17,1.52-3.17,3.5,1.28,3.47,3.17,3.47,3.2-1.5,3.2-3.47Z"/><path class="cls-1" d="m334.18,627.41c0,1.49-.8,2.5-2.03,2.96v.08l2.31,3.12v.22h-1.74l-2.29-3.17h-2.29v3.17h-1.58v-9.6h3.95c2.26,0,3.68,1.22,3.68,3.22Zm-3.76-1.81h-2.29v3.62h2.39c1.17,0,2.02-.58,2.02-1.79s-.83-1.83-2.11-1.83Z"/><path class="cls-1" d="m341.05,630.72h-.58l-2.75-3.57v6.64h-1.58v-9.6h1.22l3.41,4.48,3.43-4.48h1.18l.02,9.6h-1.57v-6.69l-2.77,3.62Z"/><path class="cls-1" d="m354.41,633.8l-.78-1.97h-4.58l-.77,1.97h-1.68l3.94-9.6h1.6l3.94,9.6h-1.66Zm-1.31-3.31l-1.76-4.45-1.76,4.45h3.52Z"/><path class="cls-1" d="m364.39,633.8l-5.52-6.82v6.82h-1.58v-9.6h1.2l5.51,6.79v-6.79h1.58v9.6h-1.18Z"/><path class="cls-1" d="m372.18,634.02c-2.95,0-4.85-2.24-4.85-5.01s1.9-5.03,4.85-5.03c2.21,0,3.23,1.2,3.23,1.2l-.91,1.23s-.83-.93-2.29-.93c-1.9,0-3.23,1.54-3.23,3.52s1.33,3.49,3.23,3.49c1.46,0,2.29-.91,2.29-.91l.91,1.22s-1.02,1.22-3.23,1.22Z"/><path class="cls-1" d="m378.49,629.6v2.79h5.25v1.41h-6.83v-9.6h6.83v1.41h-5.25v2.66h4.47v1.34h-4.47Z"/><path class="cls-1" d="m254.67,653.22c-2.95,0-4.85-2.24-4.85-5.01s1.9-5.03,4.85-5.03c2.21,0,3.23,1.2,3.23,1.2l-.91,1.23s-.83-.93-2.29-.93c-1.9,0-3.23,1.54-3.23,3.52s1.33,3.49,3.23,3.49c1.46,0,2.29-.91,2.29-.91l.91,1.22s-1.02,1.22-3.23,1.22Z"/><path class="cls-1" d="m258.59,648.21c0-2.8,1.9-5.03,4.8-5.03s4.82,2.22,4.82,5.03-1.9,5.01-4.82,5.01-4.8-2.24-4.8-5.01Zm8,0c0-1.98-1.3-3.5-3.2-3.5s-3.17,1.52-3.17,3.5,1.28,3.47,3.17,3.47,3.2-1.5,3.2-3.47Z"/><path class="cls-1" d="m274.9,649.92h-.58l-2.75-3.57v6.64h-1.58v-9.6h1.22l3.41,4.48,3.43-4.48h1.18l.02,9.6h-1.57v-6.69l-2.77,3.62Z"/><path class="cls-1" d="m285.55,643.39c2.26,0,3.68,1.22,3.68,3.22s-1.47,3.28-3.71,3.28h-2.34v3.11h-1.58v-9.6h3.95Zm-.08,1.41h-2.29v3.7h2.31c1.26,0,2.11-.58,2.11-1.87s-.85-1.83-2.13-1.83Z"/><path class="cls-1" d="m290.7,648.93v-5.54h1.58v5.54c0,1.58.82,2.77,2.43,2.77s2.43-1.18,2.43-2.77v-5.54h1.58v5.54c0,2.5-1.47,4.29-4.02,4.29s-4.02-1.79-4.02-4.29Z"/><path class="cls-1" d="m307.78,643.39v1.41h-3.01v8.2h-1.58v-8.2h-3.01v-1.41h7.6Z"/><path class="cls-1" d="m310.93,648.8v2.79h5.25v1.41h-6.83v-9.6h6.83v1.41h-5.25v2.66h4.47v1.34h-4.47Z"/><path class="cls-1" d="m325.62,646.61c0,1.49-.8,2.5-2.03,2.96v.08l2.31,3.12v.22h-1.74l-2.29-3.17h-2.29v3.17h-1.58v-9.6h3.95c2.26,0,3.68,1.22,3.68,3.22Zm-3.76-1.81h-2.29v3.62h2.39c1.17,0,2.02-.58,2.02-1.79s-.83-1.83-2.11-1.83Z"/><path class="cls-1" d="m330.53,651.75c1.3,0,1.86-.54,1.86-1.33,0-.74-.45-1.1-2.18-1.63-2.15-.64-3.19-1.36-3.19-2.87,0-1.65,1.25-2.74,3.52-2.74,2.39,0,3.35.98,3.35.98l-.86,1.3s-.91-.8-2.48-.8c-1.09,0-1.78.43-1.78,1.2,0,.66.51.98,2.13,1.46,2.32.66,3.25,1.5,3.25,2.99,0,1.63-1.17,2.91-3.57,2.91s-3.63-1.2-3.63-1.2l.86-1.2s1.12.93,2.72.93Z"/><path class="cls-1" d="m342.24,654.15l-.99,1.04c-.75-.8-2.59-2.95-2.59-6.79s1.84-6,2.59-6.79l.99,1.04c-.62.72-1.95,2.51-1.95,5.75s1.33,5.03,1.95,5.75Z"/><path class="cls-1" d="m350.13,653v-4.08h-4.87v4.08h-1.58v-9.6h1.58v4.18h4.87v-4.18h1.58v9.6h-1.58Z"/><path class="cls-1" d="m358.03,643.39c2.26,0,3.68,1.22,3.68,3.22s-1.47,3.28-3.71,3.28h-2.34v3.11h-1.58v-9.6h3.95Zm-.08,1.41h-2.29v3.7h2.31c1.26,0,2.11-.58,2.11-1.87s-.85-1.83-2.13-1.83Z"/><path class="cls-1" d="m367.55,653.22c-2.95,0-4.85-2.24-4.85-5.01s1.9-5.03,4.85-5.03c2.21,0,3.23,1.2,3.23,1.2l-.91,1.23s-.83-.93-2.29-.93c-1.9,0-3.23,1.54-3.23,3.52s1.33,3.49,3.23,3.49c1.46,0,2.29-.91,2.29-.91l.91,1.22s-1.02,1.22-3.23,1.22Z"/><path class="cls-1" d="m371.34,642.66l1.01-1.04c.74.78,2.58,2.93,2.58,6.79s-1.84,5.99-2.58,6.79l-1.01-1.04c.62-.72,1.95-2.53,1.95-5.75s-1.33-5.03-1.95-5.75Z"/><path class="cls-1" d="m629.14,641.55c1.3,0,1.86-.54,1.86-1.33,0-.74-.45-1.1-2.18-1.63-2.14-.64-3.19-1.36-3.19-2.87,0-1.65,1.25-2.74,3.52-2.74,2.39,0,3.35.98,3.35.98l-.86,1.3s-.91-.8-2.48-.8c-1.09,0-1.78.43-1.78,1.2,0,.66.51.98,2.13,1.46,2.32.66,3.25,1.5,3.25,2.99,0,1.63-1.17,2.91-3.57,2.91s-3.63-1.2-3.63-1.2l.87-1.2s1.12.93,2.72.93Z"/><path class="cls-1" d="m641.27,633.19v1.41h-3.01v8.2h-1.58v-8.2h-3.01v-1.41h7.6Z"/><path class="cls-1" d="m641.87,638.01c0-2.8,1.9-5.03,4.8-5.03s4.82,2.22,4.82,5.03-1.9,5.01-4.82,5.01-4.8-2.24-4.8-5.01Zm8,0c0-1.98-1.3-3.5-3.2-3.5s-3.17,1.52-3.17,3.5,1.28,3.47,3.17,3.47,3.2-1.5,3.2-3.47Z"/><path class="cls-1" d="m660.9,636.41c0,1.49-.8,2.5-2.03,2.96v.08l2.3,3.12v.22h-1.74l-2.29-3.17h-2.29v3.17h-1.58v-9.6h3.95c2.26,0,3.68,1.22,3.68,3.22Zm-3.76-1.81h-2.29v3.62h2.38c1.17,0,2.02-.58,2.02-1.79s-.83-1.83-2.11-1.83Z"/><path class="cls-1" d="m669.44,642.8l-.78-1.97h-4.58l-.77,1.97h-1.68l3.94-9.6h1.6l3.94,9.6h-1.66Zm-1.31-3.31l-1.76-4.45-1.76,4.45h3.52Z"/><path class="cls-1" d="m676.03,638.71v-1.34h4.61v.94c0,2.85-1.65,4.71-4.4,4.71-2.98,0-4.79-2.24-4.79-5.01s1.87-5.03,4.83-5.03c2.38,0,3.42,1.23,3.42,1.23l-.93,1.22s-.9-.94-2.5-.94c-1.94,0-3.2,1.54-3.2,3.52s1.23,3.49,3.15,3.49c1.68,0,2.72-1.12,2.72-2.74v-.05h-2.93Z"/><path class="cls-1" d="m683.86,638.6v2.79h5.25v1.41h-6.83v-9.6h6.83v1.41h-5.25v2.66h4.47v1.34h-4.47Z"/><path class="cls-1" d="m457.62,642.24h-3.39v-9.6h3.39c2.99,0,4.95,1.94,4.95,4.8s-1.95,4.8-4.95,4.8Zm-1.81-1.41h1.71c1.92,0,3.42-1.26,3.42-3.39s-1.5-3.39-3.42-3.39h-1.71v6.79Z"/><path class="cls-1" d="m470.72,642.24l-.78-1.97h-4.58l-.77,1.97h-1.68l3.94-9.6h1.6l3.94,9.6h-1.67Zm-1.31-3.31l-1.76-4.45-1.76,4.45h3.52Z"/><path class="cls-1" d="m479.39,632.64v1.41h-3.01v8.2h-1.58v-8.2h-3.01v-1.41h7.6Z"/><path class="cls-1" d="m486.61,642.24l-.78-1.97h-4.58l-.77,1.97h-1.68l3.94-9.6h1.6l3.94,9.6h-1.67Zm-1.31-3.31l-1.76-4.45-1.76,4.45h3.52Z"/><path class="cls-1" d="m493.84,642.24h-4.35v-9.6h4.21c2.13,0,3.31.93,3.31,2.61,0,.96-.53,1.7-1.34,2.05v.06c.98.27,1.63,1.04,1.63,2.14,0,1.81-1.34,2.74-3.46,2.74Zm-.16-8.2h-2.61v2.69h2.58c1.04,0,1.7-.54,1.7-1.33,0-.91-.64-1.36-1.67-1.36Zm-2.61,6.79h2.8c.99,0,1.76-.51,1.76-1.41,0-.82-.72-1.33-1.63-1.38h-2.93v2.79Z"/><path class="cls-1" d="m505.63,642.24l-.78-1.97h-4.58l-.77,1.97h-1.68l3.94-9.6h1.6l3.94,9.6h-1.67Zm-1.31-3.31l-1.76-4.45-1.76,4.45h3.52Z"/><path class="cls-1" d="m511.36,640.99c1.3,0,1.86-.54,1.86-1.33,0-.74-.45-1.1-2.18-1.63-2.15-.64-3.19-1.36-3.19-2.87,0-1.65,1.25-2.74,3.52-2.74,2.38,0,3.34.98,3.34.98l-.86,1.3s-.91-.8-2.48-.8c-1.09,0-1.78.43-1.78,1.2,0,.66.51.98,2.13,1.46,2.32.66,3.25,1.5,3.25,2.99,0,1.63-1.17,2.91-3.57,2.91s-3.63-1.2-3.63-1.2l.86-1.2s1.12.93,2.72.93Z"/><path class="cls-1" d="m518.27,638.05v2.79h5.25v1.41h-6.83v-9.6h6.83v1.41h-5.25v2.66h4.47v1.34h-4.47Z"/><path class="cls-1" d="m528.29,640.99c1.3,0,1.86-.54,1.86-1.33,0-.74-.45-1.1-2.18-1.63-2.15-.64-3.19-1.36-3.19-2.87,0-1.65,1.25-2.74,3.52-2.74,2.38,0,3.34.98,3.34.98l-.86,1.3s-.91-.8-2.48-.8c-1.09,0-1.78.43-1.78,1.2,0,.66.51.98,2.13,1.46,2.32.66,3.25,1.5,3.25,2.99,0,1.63-1.17,2.91-3.57,2.91s-3.63-1.2-3.63-1.2l.86-1.2s1.12.93,2.72.93Z"/><line class="cls-4" x1="212.99" y1="517.55" x2="212.99" y2="687.69"/><line class="cls-4" x1="578.87" y1="518.32" x2="578.87" y2="688.47"/><line class="cls-4" x1="411.87" y1="528.32" x2="411.87" y2="683.74"/><path class="cls-5" d="m158.5,584.28c-3.3-4.5-7.52-6.93-12.56-7.35-3.51-10.45-13.39-17.98-25.02-17.98-10.35,0-19.31,5.96-23.63,14.63-10.12.52-18.17,8.9-18.17,19.15s8.59,19.18,19.18,19.18c.03,0,.05,0,.08,0h0s45.25,0,45.25,0l-.02-.02c9.12.36,16.59-5.82,17.92-14.86.68-4.65-.25-8.96-3.02-12.75Z"/><g id="JNpY36.tif"><path class="cls-1" d="m617.97,251.61c.65,0,1.31.13,1.97.39,8.87,3.42,17.74,6.82,26.62,10.21.6.23,1.01.61,1.32,1.14v.7c-.33.67-.9,1-1.59,1.24-1.52.54-3.01,1.15-4.52,1.71-.34.13-.48.29-.48.67.01,4.57,0,9.14.02,13.71,0,.24.16.55.34.71,1.26,1.11,1.38,2.75.29,4.05-.13.16-.22.46-.16.65.44,1.62,1.33,2.94,2.81,3.77.7.4,1.51.62,2.23.98.38.19.7.51,1.04.77v.35c-1.25,2.04-3.18,3.06-5.4,3.66-.14.04-.27.06-.41.06-.34,0-.65-.13-.85-.44-.55-.84-1.14-1.68-1.51-2.6-.74-1.84-.96-3.8-1.05-5.77-.02-.54-.15-.95-.61-1.35-1.27-1.1-1.17-2.97.12-4.11.19-.17.38-.46.38-.7.02-4.25.02-8.49.01-12.74,0-.11-.02-.23-.03-.42-.25.09-.47.15-.68.23-5.99,2.29-11.98,4.58-17.96,6.89-.67.26-1.32.39-1.98.39s-1.28-.12-1.94-.38c-8.9-3.44-17.8-6.87-26.71-10.29-.68-.26-1.14-.68-1.17-1.43-.03-.65.39-1.14,1.16-1.43,8.91-3.42,17.82-6.83,26.72-10.26.67-.26,1.33-.39,1.99-.39m0-2h0c-.9,0-1.81.18-2.71.52-6.6,2.54-13.2,5.07-19.8,7.6l-6.92,2.65c-1.59.61-2.51,1.88-2.44,3.39.04.86.4,2.43,2.45,3.21,8.91,3.42,17.81,6.85,26.71,10.29.88.34,1.77.51,2.66.51s1.8-.18,2.7-.52c4.59-1.77,9.18-3.53,13.78-5.29l2.18-.83c0,3.26,0,6.51-.01,9.77-.9.93-1.4,2.15-1.4,3.4,0,1.29.54,2.48,1.51,3.36.08,1.8.29,4.16,1.19,6.42.4,1.01.99,1.89,1.51,2.67l.19.28c.56.85,1.48,1.34,2.52,1.34.31,0,.62-.04.93-.13,3.07-.83,5.22-2.31,6.58-4.55l.29-.48v-1.91l-.79-.6c-.08-.06-.16-.13-.24-.2-.29-.24-.64-.54-1.11-.77-.4-.2-.8-.36-1.15-.5-.37-.15-.72-.28-.99-.44-.77-.43-1.32-1.08-1.67-1.98,1.23-1.93,1-4.28-.6-5.94,0-2.42-.01-4.84-.01-7.26,0-1.69,0-3.39,0-5.08.37-.14.75-.29,1.12-.43.84-.32,1.7-.66,2.55-.96.84-.3,2.04-.86,2.71-2.26l.2-.41v-1.7l-.27-.47c-.55-.94-1.34-1.61-2.33-1.99-9.35-3.57-18.06-6.91-26.61-10.21-.89-.34-1.8-.52-2.69-.52h0Z"/><path class="cls-1" d="m601.17,271.99c2.77,1.07,5.44,2.09,8.1,3.12,2.03.78,4.06,1.57,6.09,2.35.84.32,1.69.48,2.53.48s1.76-.17,2.65-.52c4.53-1.75,9.07-3.47,13.61-5.2.18-.07.36-.13.62-.23v1.45c0,1.6-.02,3.19,0,4.79.02,1.08-.37,1.97-1.09,2.74-1.18,1.26-2.65,2.1-4.19,2.82-3.47,1.62-7.1,2.8-10.92,3.17-.21.02-.42.03-.63.03-1.03,0-2.1-.22-3.11-.43-3.48-.73-6.84-1.84-9.92-3.64-.98-.57-1.87-1.32-2.72-2.08-.75-.68-1.05-1.59-1.04-2.63.03-2.04,0-4.08,0-6.22m-2-2.91v2.91c0,.63,0,1.26,0,1.88,0,1.49,0,2.89-.01,4.31-.02,1.69.56,3.13,1.7,4.15.85.77,1.88,1.64,3.05,2.32,2.99,1.74,6.43,3.01,10.52,3.87,1.01.21,2.26.47,3.52.47.28,0,.56-.01.82-.04,3.74-.36,7.53-1.46,11.57-3.35,1.44-.67,3.29-1.65,4.8-3.26,1.11-1.19,1.66-2.58,1.63-4.15-.02-1.09-.02-2.22-.01-3.31,0-.48,0-.96,0-1.44v-4.31l-2.69.99-.24.09c-.15.06-.28.1-.4.15l-3.74,1.43c-3.29,1.26-6.59,2.51-9.88,3.78-.67.26-1.3.38-1.93.38s-1.2-.11-1.81-.35c-1.26-.49-2.53-.97-3.79-1.46l-2.3-.89-5.63-2.17-2.47-.95-2.72-1.05h0Z"/></g><path class="cls-1" d="m298.42,135.01c1.17.71,2.55,1.25,4.35,1.7,1.17.3,2.34.5,3.48.6.73.07,1.48.11,2.21.15.23.01.47.03.7.04.08-.03.16-.05.24-.05.15,0,.31,0,.46,0,.15,0,.29,0,.44,0,.17,0,.33,0,.5-.01.81-.06,1.68-.12,2.53-.24.92-.13,1.75-.28,2.53-.46.65-.15,1.36-.36,2.22-.66,1.14-.4,2.1-.88,2.92-1.48.63-.46,1.04-.9,1.31-1.39.25-.45.32-.89.23-1.34-.09-.47-.35-.91-.81-1.38-.53-.55-1.21-1.02-2.14-1.48-.77-.39-1.56-.69-2.33-.92l-.3-.09c-.51-.15-.99-.29-1.48-.39-.88-.18-1.65-.31-2.35-.4-1-.12-1.88-.19-2.69-.22-.26,0-.53-.01-.79-.01-.66,0-1.32.02-1.95.05-.55.02-1.15.07-1.89.16-.98.12-1.96.29-2.92.53-1.33.32-2.46.71-3.46,1.19-1.1.53-1.86,1.04-2.44,1.67-.37.39-.59.76-.69,1.14-.17.61-.05,1.17.37,1.76.39.55.95,1.04,1.75,1.52Z"/><path class="cls-1" d="m296.33,143.29c.17.55.54,1.03,1.18,1.56.55.46,1.22.86,2.09,1.26,1.03.48,2.14.85,3.4,1.14.76.18,1.46.31,2.13.4.89.12,1.8.22,2.7.28.37.03.74.03,1.19.03h.51s.5,0,.5,0c.91,0,1.87-.07,3.02-.21,1.3-.16,2.48-.39,3.61-.71,1.46-.41,2.61-.88,3.62-1.47.83-.49,1.41-.98,1.82-1.53.32-.43.47-.8.48-1.17,0-.39.01-.78.01-1.18-.67.52-1.44.97-2.34,1.39-.94.43-1.93.79-2.92,1.05-.54.14-1.25.32-1.98.46-.74.14-1.53.25-2.35.35-.74.09-1.46.14-2.13.17-.46.02-.91.02-1.37.02-.37,0-.74,0-1.11-.02-.88-.03-1.67-.08-2.41-.16-.76-.08-1.55-.2-2.42-.36-.71-.13-1.42-.29-2.1-.48-1.28-.35-2.39-.78-3.41-1.3-.69-.36-1.28-.73-1.8-1.12,0,.37,0,.74,0,1.11,0,.15.03.32.09.49Z"/><path class="cls-1" d="m317.92,138.71c-1.45.45-2.91.75-4.33.91-1.31.14-2.48.23-3.58.26-.19,0-.38,0-.57,0-.94,0-1.86-.06-2.55-.11-.86-.06-1.72-.18-2.55-.29l-.23-.03c-.92-.13-1.87-.34-3.01-.68-1.15-.34-2.17-.74-3.09-1.22-.68-.35-1.26-.72-1.77-1.11,0,.37,0,.74,0,1.1,0,.25.07.51.2.78.28.58.75,1.07,1.5,1.6.96.68,2.11,1.21,3.63,1.68,1.15.36,2.37.63,3.74.82,1.3.19,2.65.28,4,.29h.08c.78,0,1.57-.03,2.35-.1.83-.07,1.8-.17,2.75-.34.93-.17,1.86-.42,2.74-.66.94-.26,1.87-.64,2.77-1.13.95-.52,1.58-1.02,2.05-1.61.36-.45.53-.85.53-1.26,0-.39.01-.78.01-1.17-.25.2-.52.38-.8.56-1.1.69-2.37,1.25-3.87,1.71Z"/><path class="cls-1" d="m318.41,149.04c-1.04.35-2.12.63-3.19.82-.89.16-1.7.27-2.46.34-.99.09-1.99.15-3,.18-.17,0-.33,0-.5,0-.54,0-1.11-.02-1.79-.07-.76-.05-1.65-.12-2.54-.25-.96-.14-1.93-.33-2.89-.55-1.1-.25-2.2-.62-3.27-1.1-1.02-.46-1.85-.93-2.55-1.48,0,.32,0,.65,0,.97,0,.43.12.84.39,1.24.37.55.89,1.03,1.64,1.5,1.22.77,2.66,1.34,4.38,1.76.86.21,1.76.36,2.63.51l.11.02c1.13.19,2.3.25,3.19.27.32,0,.65.01.97.01.79,0,1.49-.03,2.14-.1.8-.08,1.62-.16,2.41-.28,1.11-.17,2.22-.43,3.29-.78,1.1-.35,1.98-.73,2.75-1.17.9-.52,1.5-1,1.93-1.58.33-.44.49-.82.5-1.2.01-.39.01-.79.01-1.18-.29.22-.59.43-.92.63-.94.57-2,1.05-3.25,1.48Z"/><path class="cls-1" d="m330.29,122.72c-2.74-8.37-10.83-14.12-20.04-14.12-6.71,0-12.97,3.07-16.93,8.25-1.09-.21-2.2-.32-3.32-.32-9.31,0-16.88,7.3-16.88,16.26s6.91,15.67,15.77,16.23c.1.02.2.03.3.03h4.37c0,.16.04.32.1.46.12.53.34,1.03.66,1.51.55.82,1.32,1.53,2.35,2.17,1.49.93,3.21,1.63,5.27,2.13.98.24,1.98.41,2.94.57l.11.02c1.33.23,2.66.29,3.68.31.36.01.73.02,1.09.02.9,0,1.72-.04,2.48-.11h.03c.86-.09,1.76-.18,2.65-.31,1.29-.2,2.57-.5,3.81-.9,1.31-.42,2.36-.87,3.31-1.41.75-.43,1.84-1.12,2.66-2.21.42-.56.69-1.11.83-1.69.08-.16.13-.35.14-.55h4.85c.07,0,.14,0,.21-.02,3.48-.15,6.73-1.55,9.17-3.96,2.5-2.47,3.87-5.73,3.87-9.19,0-7.2-6.02-13.07-13.47-13.17Zm-43.04,19.98l-5.86-8.35h3.07v-8.03s5.67.03,5.67.03v8h2.97l-5.86,8.35Zm37.78,5.87c0,.13-.04.25-.1.34-.11.52-.35,1.03-.74,1.54-.58.77-1.34,1.4-2.47,2.04-.91.52-1.93.95-3.19,1.36-1.2.39-2.45.68-3.71.88-.87.14-1.76.22-2.62.31-.77.08-1.56.11-2.44.11-.36,0-.71,0-1.07-.02-.99-.03-2.3-.09-3.59-.31l-.1-.02c-.96-.16-1.94-.33-2.91-.56-1.99-.48-3.65-1.15-5.08-2.05-.95-.6-1.66-1.25-2.16-1.99-.29-.44-.49-.9-.58-1.38-.04-.08-.07-.17-.07-.27v-.39s0-.04,0-.05c0-.59,0-1.18,0-1.77v-14.91c0-.06,0-.1,0-.14v-.81c0-.24.14-.46.35-.56.19-.42.47-.81.83-1.2.74-.8,1.68-1.44,3.02-2.08,1.15-.55,2.44-.99,3.95-1.36,1.07-.26,2.18-.46,3.27-.59.83-.1,1.5-.15,2.12-.18.68-.03,1.4-.05,2.13-.05.3,0,.6,0,.89.01.91.03,1.88.11,2.98.24.79.1,1.63.24,2.62.44.57.12,1.14.28,1.68.44l.32.09c.91.26,1.83.62,2.72,1.07,1.13.57,1.98,1.15,2.65,1.85.41.42.71.85.93,1.3.22.1.38.32.38.58v18.08Zm4.55-4.39v-8h-2.97l5.86-8.35,5.86,8.35h-3.07v8.03s-5.67-.03-5.67-.03Z"/><rect class="cls-1" x="430.43" y="146.46" width="8.38" height="0" transform="translate(-16.51 229.06) rotate(-29)"/><path class="cls-1" d="m435.74,141.68c-1.13-1.91-1.21-4.09-.43-5.97l-.96-1.73-6.25,3.46c-.41.23-.93.08-1.16-.33l-.2-.36c-.23-.41-.08-.93.33-1.16l6.25-3.46-4.2-7.58c-.23-.41-.08-.93.33-1.16l.37-.21c.41-.23.93-.08,1.16.33l4.2,7.58,3.38-1.87c.75-1.91,2.2-3.58,4.24-4.64.41-.22.84-.4,1.27-.55l-3.3-5.95c-.23-.41-.08-.93.33-1.16l.37-.21c.41-.23.93-.08,1.16.33l3.6,6.49c.84-.09,1.68-.08,2.51.04l4.35-2.41c.41-.23.93-.08,1.16.33l.2.36c.23.41.08.93-.33,1.16l-2.55,1.41c.85.4,1.65.93,2.35,1.58.25.17.5.35.74.54,2.29-.97,4.92-.53,6.71,1.01l-9.36-16.89c-.41-.74-1.35-1.01-2.09-.6l-30.49,16.9c-.74.41-1.01,1.35-.6,2.09l10.43,18.82c.41.74,1.35,1.01,2.09.6l7.33-4.06c-1.2-.62-2.24-1.55-2.95-2.75Z"/><path class="cls-1" d="m436.21,133.68c.4-.43.85-.82,1.37-1.15,0-.19,0-.37,0-.56l-1.78.98.4.73Z"/><path class="cls-1" d="m441.09,136.36c0-3.7,2.42-6.18,5.76-6.18,2.51,0,3.56,1.03,3.56,1.03l-.5,1.2s-1.17-.89-2.98-.89c-2.31,0-4.26,1.78-4.26,4.84s1.95,4.73,4.26,4.73c1.81,0,2.98-.89,2.98-.89l.45,1.2s-1,1.03-3.51,1.03c-3.34,0-5.76-2.39-5.76-6.07Z"/><path class="cls-1" d="m461.44,142.15l-.19-1.84h-.11c-.75,1.2-2.25,2.12-4.26,2.12-2.95,0-4.48-1.67-4.48-3.67,0-2.12,1.7-3.76,5.26-3.76,1.5,0,2.64.31,3.37.58v-.56c0-2.28-1.22-3.45-3.62-3.45-1.89,0-3.42.95-3.42.95l-.61-1.28s1.73-1.06,4.15-1.06c3.54,0,5.01,1.95,5.01,4.84v7.13h-1.09Zm-3.65-5.98c-2.73,0-3.81,1.06-3.81,2.53,0,1.36,1,2.48,3.09,2.48,2.34,0,3.95-1.73,3.95-3.28v-1.03c-.53-.28-1.59-.7-3.23-.7Z"/><path class="cls-1" d="m465.5,136.36c0-3.7,2.42-6.18,5.76-6.18,2.51,0,3.56,1.03,3.56,1.03l-.5,1.2s-1.17-.89-2.98-.89c-2.31,0-4.26,1.78-4.26,4.84s1.95,4.73,4.26,4.73c1.81,0,2.98-.89,2.98-.89l.45,1.2s-1,1.03-3.51,1.03c-3.34,0-5.76-2.39-5.76-6.07Z"/><path class="cls-1" d="m485.85,142.15l-.19-1.84h-.11c-.75,1.2-2.25,2.12-4.26,2.12-2.95,0-4.48-1.67-4.48-3.67,0-2.12,1.7-3.76,5.26-3.76,1.5,0,2.64.31,3.37.58v-.56c0-2.28-1.22-3.45-3.62-3.45-1.89,0-3.42.95-3.42.95l-.61-1.28s1.73-1.06,4.15-1.06c3.54,0,5.01,1.95,5.01,4.84v7.13h-1.09Zm-3.65-5.98c-2.73,0-3.81,1.06-3.81,2.53,0,1.36,1,2.48,3.09,2.48,2.34,0,3.95-1.73,3.95-3.28v-1.03c-.53-.28-1.59-.7-3.23-.7Z"/><path class="cls-1" d="m495.73,142.43c-3.23,0-5.85-2.34-5.85-6.07s2.62-6.18,5.85-6.18,5.82,2.45,5.82,6.18-2.64,6.07-5.82,6.07Zm4.26-6.07c0-3.01-2-4.9-4.26-4.9s-4.29,1.89-4.29,4.9,2,4.79,4.29,4.79,4.26-1.78,4.26-4.79Z"/></svg>